<svg width="14" height="18" viewBox="0 0 14 18" fill="none" xmlns="http://www.w3.org/2000/svg">
<path id="Star 1" d="M13.4521 7.65824C14.1413 8.42001 14.1413 9.57999 13.4521 10.3418L10.6322 13.4588C10.5073 13.5969 10.4023 13.7517 10.3202 13.9187L9.12776 16.3461C8.39535 17.8369 6.27001 17.8369 5.5376 16.3461L4.34513 13.9187C4.26305 13.7517 4.15806 13.5969 4.03318 13.4588L1.21321 10.3418C0.524056 9.57999 0.524056 8.42001 1.21322 7.65824L4.03318 4.54116C4.15806 4.40313 4.26305 4.24833 4.34513 4.08127L5.5376 1.65394C6.27001 0.163105 8.39535 0.163102 9.12776 1.65394L10.3202 4.08127C10.4023 4.24833 10.5073 4.40313 10.6322 4.54116L13.4521 7.65824Z" fill="#FF2D2D"/>
</svg>
