<svg width="60" height="60" viewBox="0 0 60 60" fill="none" xmlns="http://www.w3.org/2000/svg">
<g clip-path="url(#clip0_1919_5697)">
<path d="M9.25 53.5714L5 0H56L51.75 53.5714L30.5 60L9.25 53.5714Z" fill="#1172B8"/>
<path d="M10.8888 53.0169C8.09278 36.6716 8.32454 23.6305 6.89429 1.41193M10.024 51.7425C8.76213 30.8984 5.68532 11.1906 5 0.131401M7.67432 0.376425C25.5274 -0.851186 44.5805 1.55686 55.6196 0.266431M5.42558 1.04539C16.1403 0.55121 28.1405 1.27974 56 1.26191M54.7513 0.0336854C53.2574 12.4389 51.8246 28.9353 50.0108 50.2687M55.7011 0C52.7082 17.9772 51.0574 37.3303 51.8086 51.3437M49.5839 51.9404C41.5942 56.1282 34.3739 55.7473 31.8858 58.8859M50.7611 53.0058C44.8531 54.867 39.146 55.4258 30.5601 57.9146M30.651 60C23.4371 56.6509 18.7269 53.9175 10.8666 50.818M29.6214 58.0599C24.0934 57.1002 19.1435 55.5662 9.38037 51.2567M9.87098 52.1338V52.1338Z" stroke="#001D32"/>
<path d="M51.75 4.28613H30.5V56.7861L47.5 51.429L51.75 4.28613Z" fill="#33AADD"/>
<path d="M31.248 11.4667C32.7637 9.95044 33.862 9.22956 36.3836 6.00097M31.9185 11.4625C33.4322 9.76365 34.9745 7.5701 35.7491 6.03116M31.2043 17.6986C34.2984 13.6906 37.8446 7.43301 40.4482 4.8777M32.4958 16.289C34.1411 14.1514 35.9662 11.7863 41.039 5.351M32.2465 23.121C35.4096 19.5425 36.0605 15.5365 45.8851 4.28613M32.2717 23.256C36.3567 16.4315 41.8285 9.95528 45.1832 6.21531M31.8494 27.2085C37.3933 25.6157 39.2231 17.2599 50.4038 7.09345M31.4474 28.0533C37.9483 22.7253 41.5689 14.768 49.666 5.35586M31.708 34.6398C38.2838 25.9224 48.6399 12.2197 51.75 9.09645M32.2432 35.1701C38.005 27.5027 43.443 19.415 51.4203 8.3227M30.5 41.6557C38.4536 30.8945 44.9006 25.1635 50.424 14.2781M32.5125 41.3986C38.2233 32.7342 43.7227 24.4412 50.1184 15.3091M33.3123 44.7708C37.7111 39.8192 43.3043 29.9273 51.1206 20.0071M32.3671 46.4116C36.6504 39.4591 42.2794 32.3562 50.6505 21.0503M31.6092 53.0327C38.012 43.5162 42.7287 35.0495 50.5212 27.9961M31.2812 51.225C36.253 46.2561 39.4971 41.9187 49.4955 27.6909M33.0954 54.6782C39.5792 47.0058 44.9781 40.1621 50.2062 34.0364M33.0996 56.7861C40.0836 47.7017 45.4964 38.359 49.6898 34.557M38.3934 53.9011C42.6094 50.1145 44.2577 48.5993 48.424 42.1215M38.8414 54.3986C41.3726 51.4988 44.0449 46.9034 48.1687 39.6001M32.0364 5.59985V5.59985Z" stroke="#33AADD"/>
<path d="M37.9375 31.0718H16.6875L15.625 23.5718L32.625 18.2147H15.625L14.5625 11.7861H47.5L46.4375 19.2861L32.625 24.6433H45.375L43.25 45.0004L30.5 49.2861L17.75 45.0004L16.6875 34.2861H23.0625L24.125 39.6433L30.5 41.7861L36.875 39.6433L37.9375 31.0718Z" fill="white"/>
<path d="M14.982 16.8271C15.9969 15.6899 17.109 14.7141 18.6394 13.2811M15.4197 17.0853C16.4809 15.6953 17.9618 14.5717 18.882 12.8783M17.2648 19.8169C20.7927 17.4965 23.369 14.7468 23.9656 12.2593M17.9953 19.9677C18.818 18.3922 20.4451 16.0315 24.6632 12.4786M22.4015 20.3887C23.1835 18.129 25.1456 15.6396 28.372 13.4026M21.8121 19.9458C24.7119 17.0514 27.3529 14.1026 29.0802 12.3694M16.9638 30.9687C19.4901 29.606 20.1297 27.2528 25.1721 24.0613M17.6729 30.7096C19.974 28.0968 21.9771 25.4236 24.7559 23.1103M26.4863 19.6628C28.7421 17.3669 29.9484 15.9369 34.8184 11.7861M27.0433 20.2477C29.6969 16.9401 32.2546 14.4803 34.5832 12.0102M23.6328 31.188C28.9107 24.9047 36.7441 16.5386 36.9682 13.0749M21.7775 31.1314C29.0124 23.6423 33.8185 17.071 38.0595 12.601M19.2067 39.1338C20.415 38.7193 22.2208 36.2079 24.5227 34.6547M20.0804 39.6819C20.5977 38 21.9746 37.1824 24.2336 33.8969M27.4987 30.4604C29.1711 29.5071 31.1639 26.8298 32.2329 24.8257M27.4316 30.6958C29.4749 28.9798 30.8175 26.5932 32.6138 25.1656M32.2563 27.0067C34.8212 19.7467 41.0629 15.2601 42.5516 12.9797M33.2091 26.0412C36.5698 19.5321 41.9053 14.52 44.3438 11.8924M19.9036 44.0407C21.7222 43.2638 21.9848 42.8556 24.9664 38.9996M20.1803 44.8129C21.1746 42.7462 22.6177 41.0524 24.7462 39.3368M32.1549 30.6396C33.8168 29.5767 34.8039 28.5725 37.6386 24.3978M32.1686 30.7956C33.6078 28.7732 35.9307 27.2996 37.8135 25.2658M40.6685 21.7352C42.2009 19.1724 44.98 16.9298 47.1229 13.323M39.8491 21.9437C41.7394 20.1777 43.6439 17.9272 47.5 14.3462M24.1018 45.3483C25.1892 43.2482 27.8633 41.802 28.9955 38.8781M24.0099 45.7681C25.439 44.0696 26.3043 42.8555 29.6226 39.7721M36.6839 31.5166C38.1971 29.0879 40.967 28.3121 43.1367 24.4461M37.6206 30.8767C38.4429 29.6353 39.8623 27.7904 42.959 23.7438M28.3912 46.8318C32.6902 43.7027 35.8587 37.6021 43.5101 30.7506M27.086 46.965C33.5853 40.8025 38.5683 34.5984 42.7797 30.2688M32.5666 49.2861C33.4035 43.3113 36.897 41.5849 41.5377 35.8165M30.7821 48.7877C33.8023 45.3034 36.6711 42.7692 42.4202 36.7979M14.5625 12.555V12.555ZM18.0655 25.0256V25.0256ZM18.7915 35.1437V35.1437Z" stroke="white"/>
<path d="M39.6325 31.8146C29.1635 29.5095 24.7457 29.2362 16.5555 31.8959M39.3961 29.7713C33.6978 30.0488 26.6513 30.3315 18.6083 30.4208M18.5327 30.4397C18.0685 28.0712 16.9693 25.7153 16.9174 23.5757M18.2545 30.8405C17.8454 29.2056 17.9712 27.6743 17.1665 23.5456M17.9996 24.3489C22.8778 20.6385 25.0468 20.8875 34.6448 19.3647M17.4107 24.0576C21.4792 21.6503 25.1443 20.6543 34.1705 18.7635M32.2797 19.8829C31.2321 18.3796 25.2944 18.5566 16.7938 18.5284M32.9123 18.6833C27.2495 18.1197 21.1798 17.5668 17.9302 18.1454M16.8971 17.7715C17.4699 16.1908 16.1298 15.0846 16.4974 11.9717M17.0462 18.5929C16.5781 15.8285 16.6249 13.5436 15.9165 12.4727M14.5625 11.8114C30.3543 11.72 40.539 11.7738 46.6432 13.7895M15.5541 12.681C28.0244 11.7623 39.5494 13.0621 47.2761 12.1146M47.5 12.132C46.9077 13.4822 46.3486 16.5626 45.9512 18.8944M47.3364 12.5204C47.0945 13.717 47.1891 14.8633 46.6249 19.3365M45.7127 19.9848C41.37 19.4513 38.5037 22.8078 33.8498 24.733M46.3032 18.956C42.4599 21.5863 37.861 23.1291 33.1008 24.9624M33.5554 25.5779C38.1514 23.6495 41.7398 24.4833 46.0053 24.1477M33.3457 24.7001C36.256 24.3612 38.3737 24.2361 46.0954 24.3902M44.2762 24.2972C46.508 30.4508 45.2063 31.6383 43.8318 44.2515M44.7487 24.7192C45.358 30.6679 44.3771 37.9498 42.8564 44.4082M44.748 45.2512C41.4003 45.1636 38.4063 44.7587 31.3543 46.9676M43.2369 43.9624C39.3907 46.0274 34.8941 46.4325 30.7478 48.7517M30.1779 49.2861C26.1179 45.6192 24.0741 46.7067 19.0331 43.0027M30.8812 48.1894C28.6202 46.6855 25.9138 46.3096 19.3479 44.3767M19.4458 43.4633C18.7882 41.4131 17.7605 37.7217 18.0629 33.8836M18.7865 43.8258C19.114 40.7776 17.9083 36.9166 17.9463 33.9671M17.9103 33.755C20.9554 33.6063 23.3199 34.2558 24.6869 33.4111M18.3398 33.7046C19.776 34.0845 21.5463 33.9628 24.1412 33.9202M24.0239 33.3885C24.5365 35.4641 24.9409 36.5138 25.7291 39.2134M24.441 33.7318C24.5824 34.9661 24.524 35.9887 25.2205 38.9914M24.8512 38.6724C26.3683 39.6889 29.2425 40.0434 30.919 40.9594M25.2016 39.108C27.5912 39.6495 29.6589 40.306 31.0526 40.8851M31.0805 41.3218C32.3 40.7501 34.6056 39.4421 37.987 39.0572M31.1394 40.7701C33.0981 40.6045 34.593 39.4958 37.2138 39.2192M37.2151 38.3967C37.1666 37.0385 37.6456 34.7837 38.826 30.1146M37.3101 38.6562C37.5818 35.954 38.0007 33.6605 38.4027 30.7407M38.4585 30.6794V30.6794Z" stroke="#001D32"/>
</g>
<defs>
<clipPath id="clip0_1919_5697">
<rect width="60" height="60" fill="white"/>
</clipPath>
</defs>
</svg>
