<svg width="60" height="60" viewBox="0 0 60 60" fill="none" xmlns="http://www.w3.org/2000/svg">
<g clip-path="url(#clip0_1919_5490)">
<path d="M10 50C10 44.4772 14.4772 40 20 40H30V50C30 55.5228 25.5228 60 20 60C14.4772 60 10 55.5228 10 50Z" fill="#24CB71"/>
<path d="M10.6711 51.4018C13.2846 48.0136 14.3104 45.0938 17.8823 42.5142M10.0773 51.0291C11.8861 48.53 13.4625 47.3746 17.0303 42.3418M11.1469 56.1761C14.1768 52.3787 16.9268 48.3734 22.6186 43.2901M11.6689 55.5718C16.1684 49.6959 19.5776 45.927 22.707 42.0047M15.1173 55.8079C21.5132 52.1098 23.7946 45.7343 28.1619 40.4172M14.8664 56.8771C19.7253 51.2278 24.8891 45.7783 28.6511 40M16.9603 58.546C21.7706 56.7787 24.0097 49.8089 30 46.2499M17.8446 60C21.272 55.4825 23.7843 52.3238 28.0417 46.889M10 45.3491V45.3491Z" stroke="#24CB71"/>
<path d="M11.243 49.9086C9.57822 46.7133 15.784 41.32 22.1533 42.3691M11.243 49.9086V49.9086ZM12.433 50.9978C9.91462 44.2082 14.5186 41.5927 20.09 40M19.8068 41.9366C23.584 40.5994 26.3009 41.9143 29.1235 41.2029M20.1363 41.54C22.7404 41.4231 24.0884 41.5651 29.777 40.9909M29.8085 40.8079C29.7457 43.9677 28.9167 46.5546 29.9243 49.5318M29.369 41.166C29.8272 44.705 29.7142 48.0304 29.9342 49.7884M29.7441 49.9086C31.2674 53.5742 25.6471 57.38 21.9515 59.1674M28.9475 49.4667C30.6939 54.765 27.3699 57.0328 20.5534 60M20.4935 58.451C14.5853 59.3677 9.93036 55.8832 10.8667 50.5392M22.2213 57.9211C14.9461 59.5425 13.11 53.4604 10 50.9088" stroke="#006830"/>
<path d="M10.4728 49.9605C12.3635 48.1572 13.7437 46.9839 17.2383 43.5106M10.5444 50.7424C12.8104 48.1155 14.7361 45.6303 17.403 43.1345M13.0052 55.6832C14.2163 50.66 16.8299 47.577 23.0865 41.3879M12.5587 53.8542C14.0907 51.368 16.913 48.2265 22.5388 41.8211M15.9246 57.8652C21.9893 50.808 24.3292 44.6078 29.2263 40.2737M14.1962 56.3744C21.5489 50.6108 26.0304 43.2127 29.6468 40M16.3266 59.5635C21.9966 55.7761 25.636 52.59 30 46.8564M18.0768 60C19.9463 57.6102 22.707 54.7192 28.9158 46.9594M10 45.1909V45.1909Z" stroke="#24CB71"/>
<path d="M10.9797 49.8937C10.975 44.6482 16.8302 42.123 19.5924 40M10.9797 49.8937V49.8937ZM12.4007 50.6421C10.7142 43.4048 13.2435 43.1044 18.5906 42.8781M19.9319 41.4297C24.1641 41.8049 27.6805 41.273 30 40.5419M20.4864 41.4601C23.311 41.1168 26.8593 41.0185 29.1144 41.5487M28.8616 40.9051C29.4697 43.3402 29.2803 44.4576 28.7344 50.1641M29.4962 41.0766C29.3001 44.5741 28.7642 47.3099 28.9599 49.8346M29.17 49.8937C29.5958 53.7776 26.6927 59.2604 18.8195 60M28.8152 50.1245C28.4504 56.0444 24.3919 60.5352 18.9639 59.5143M20.0748 58.6694C16.3423 57.1785 12.7552 55.2571 10 49.2454M18.3032 58.5905C16.6569 60.4854 10.2072 56.1811 11.0487 49.81" stroke="#006830"/>
<path d="M30 0V20H40C45.5228 20 50 15.5228 50 10C50 4.4772 45.5228 0 40 0H30Z" fill="#FF7237"/>
<path d="M30 6.1953C31.8758 4.02563 33.2971 1.80385 34.4499 0.47745M30.5127 5.91827C31.3161 4.83357 32.5862 3.6895 34.8603 0.609336M30.3331 11.482C34.7704 7.91536 34.7729 4.14772 39.2663 0M30.6992 10.0086C33.7954 7.71176 35.7692 5.1494 39.5029 0.772044M30.5333 15.4763C33.6747 12.8297 39.116 6.54457 41.9745 2.92474M31.1378 16.9007C33.5057 13.3635 37.4722 9.25956 43.3468 2.58579M32.1473 17.6973C38.7091 13.9733 42.9116 8.33249 45.8791 4.64859M32.0559 19.3205C36.8219 14.4294 41.2437 9.58282 46.325 3.63011M37.3923 20C38.5519 17.1549 42.3845 13.4544 46.3958 5.81135M36.2121 19.7504C40.0363 14.479 44.4307 11.2669 47.8149 6.81623M40.3993 19.527C43.4161 16.0033 48.1763 11.5849 50 10.3685M40.7107 19.119C43.0264 17.0033 45.7881 14.4205 48.7059 10.2677M30.8718 0.358563V0.358563Z" stroke="#FF7237"/>
<path d="M30 0.593231C30.4727 7.04325 29.9898 11.0502 30.2582 20M31.0922 1.68579C30.8747 4.91526 31.273 8.07816 30.6423 18.5394M30.841 18.5272C33.3828 18.7722 36.5063 18.1931 40.5913 19.3555M31.2143 18.8521C33.5193 18.6593 36.9559 18.6132 39.9214 18.8083M39.7728 18.8289C44.7543 18.112 49.196 14.3311 50 10.52M39.3848 17.2154C43.7724 17.7723 49.4087 14.8198 48.888 9.80556M48.5151 10.1809C50.1067 3.67816 43.6885 1.37929 39.8005 0M49.2079 10.977C49.0932 4.52503 45.8467 0.465125 40.754 3.33713M40.0168 1.67144C36.1495 2.24648 33.1985 0.981145 31.2238 1.40182M39.9889 1.14387C37.2713 1.17444 35.5027 1.29336 30.9574 1.6473M31.0305 1.53288V1.53288Z" stroke="#671E00"/>
<path d="M30.2991 5.41048C31.8745 4.6145 32.215 2.54341 35.0381 1.03234M30.3865 5.31728C31.9502 4.4657 33.1727 3.01759 34.7249 0.181791M32.1453 9.48102C32.8704 6.55664 34.8406 4.18432 39.1921 1.17692M31.2385 11.1512C32.719 8.3756 34.8252 4.96371 39.636 0M30 17.0731C34.9401 10.8351 39.2937 5.29383 41.243 2.73279M30.102 16.0401C34.7136 10.5905 39.7842 6.54637 41.9285 1.2836M31.5273 17.1194C34.7179 14.8059 39.4766 11.4715 46.1004 4.78381M32.5529 18.4991C36.1005 14.5433 39.5791 11.8552 45.0038 2.79192M36.9933 19.4405C38.446 14.9998 42.4645 14.4968 46.9227 5.82068M37.1761 19.8609C39.8114 14.8331 43.0606 12.0307 47.0416 6.42557M41.2368 18.4622C42.8306 15.4163 46.7211 11.5815 50 10.9846M41.1654 20C42.9724 16.9585 45.2783 13.8386 48.8529 9.67934M30.7734 0.19955V0.19955Z" stroke="#FF7237"/>
<path d="M31.9613 0.830112C31.5962 6.225 31.5946 9.78548 30.7091 19.6464M31.4072 0.956391C31.7118 7.38837 31.4794 13.0383 30.8724 19.363M31.1609 17.8838C32.4063 18.5031 35.2304 19.2766 41.0716 17.9246M30.8502 18.3524C34.5835 18.8753 38.2588 18.5173 40.5235 18.4521M40.3994 18.5851C46.6349 18.1756 48.6462 14.7604 49.1603 10.5922M40.3349 20C47.4245 18.6853 48.8743 16.562 50 11.3382M49.9291 10.0845C49.8363 6.44289 46.0509 0.790373 39.4331 0M49.1369 10.5827C50.9053 6.11379 47.4429 2.83894 41.4526 0.327836M41.3321 1.16558C38.3302 1.44229 34.3252 1.62787 30 1.28547M40.1774 1.89292C37.4144 1.82612 34.3916 1.20824 30.4796 1.52216M30.8696 1.58384V1.58384Z" stroke="#671E00"/>
<path d="M39.9141 40C45.4369 40 49.9141 35.5228 49.9141 30C49.9141 24.4772 45.4369 20 39.9141 20C34.3912 20 29.9141 24.4772 29.9141 30C29.9141 35.5228 34.3912 40 39.9141 40Z" fill="#00B6FF"/>
<path d="M40.28 39.728C45.1462 41.2191 50.1236 36.3522 47.8517 30.6731M40.28 39.728V39.728ZM38.5628 39.8936C43.3229 39.1712 49.7642 36.1689 49.9141 30.7374M48.9404 30.8594C47.3369 25.0513 45.3678 22.1414 39.767 20.5712M49.5171 30.6697C49.8193 24.3242 46.0894 23.4856 42.2465 20M40.28 21.9907C34.4927 23.2926 32.9084 27.6422 31.6568 30.7914M40.0271 20.3779C34.5068 22.1722 31.9631 24.1677 32.9903 31.1706M31.6195 30.8594C30.0141 34.0038 35.7248 38.374 41.2299 38.6723M29.9141 31.4277C29.9384 35.5697 36.5498 38.1907 39.6603 39.5504" stroke="#005F86"/>
<path d="M40.3279 40C47.302 38.2724 50.7615 36.3129 48.7467 29.479M40.3279 40V40ZM40.6735 39.4675C45.909 40.0997 51.7923 35.4123 49.1388 29.9374M49.8817 30.5872C50.3118 26.6746 46.4478 19.7533 38.6745 21.7456M48.2411 30.6107C49.3918 27.3285 45.7923 21.9665 40.3372 20M40.3279 21.1744C36.2985 22.6844 31.2702 24.0957 29.9141 29.592M41.9508 20.952C34.6136 22.4829 31.76 26.7971 30.6714 28.9375M30.7742 30.5872C29.9828 35.0901 36.6842 39.2841 38.9328 38.5657M30.0562 29.9111C32.5179 34.7986 36.1022 39.3835 38.9963 38.0821" stroke="#005F86"/>
<path d="M10 10C10 15.5228 14.4772 20 20 20H30V0H20C14.4772 0 10 4.4772 10 10Z" fill="#FF3737"/>
<path d="M10.9759 9.94786C12.8095 9.04183 13.0137 5.69618 17.9748 0.856486M10.7202 9.64478C12.1556 8.17898 14.6793 4.85043 17.4848 1.68685M10.4112 13.7735C13.3687 9.83027 18.5742 8.59836 24.0086 3.06939M11.7132 14.1895C14.0585 10.5341 17.4642 7.89769 21.8099 1.41897M14.0138 18.6118C18.1029 12.0664 25.2884 5.96486 28.2704 1.21629M14.3109 17.6133C18.7862 13.1916 22.268 9.2048 28.8979 0M16.2608 20C22.0368 13.7659 23.0148 13.2648 29.1744 5.79879M17.0438 19.9649C22.5421 13.8712 26.0731 9.06311 30 5.93696M21.9071 18.8343C24.472 16.3528 26.0137 14.54 29.7492 11.2173M22.2662 19.9337C23.2223 18.2815 25.0548 16.6625 28.7299 11.1642M10 4.47707V4.47707Z" stroke="#FF3737"/>
<path d="M10 9.65367C11.5492 14.5329 16.0166 19.4557 19.8302 18.7338M10 9.65367V9.65367ZM10.8361 10.0551C8.20972 14.1027 13.9094 16.8026 20.7873 20M19.5012 19.1964C22.9331 17.9075 24.8741 19.1731 28.4067 18.7098M19.8266 18.5589C22.2309 18.6399 25.4112 18.2506 29.2893 18.057M29.4174 18.3405C30.1681 12.9374 29.5673 8.80595 29.7125 0.504718M30 18.1138C29.6685 13.823 28.3243 7.36518 28.5057 0.0601372M28.9265 0C26.5907 1.28936 22.7668 1.58095 19.6582 1.54101M29.0131 0.450794C26.0184 0.883346 22.5304 0.69668 19.842 0.557832M19.5957 0.830767C14.3997 -0.6065 9.23467 3.06665 11.2929 10.3397M20.5034 1.81221C15.998 1.72203 10.2336 3.21949 12.1508 11.6244" stroke="#780101"/>
<path d="M10 10.7641C11.5967 7.9563 13.3734 7.69687 16.9359 3.08057M10.9781 10.7649C12.1894 8.94557 13.8403 6.96991 17.4976 2.75281M13.6211 13.2625C14.4813 11.3167 17.5132 7.00051 23.4665 1.52601M12.1928 13.885C14.131 11.6805 16.4065 9.15562 22.0311 2.2375M14.3242 15.2373C17.6483 10.6603 23.2368 4.71151 27.4383 0M15.2889 17.6862C18.6931 12.955 23.3186 8.57587 27.426 1.70757M16.0641 20C20.6468 15.1182 25.8937 8.03659 30 5.71568M16.7488 19.5131C20.4942 15.4509 24.4741 11.7621 27.9957 5.77531M22.2102 19.2594C24.4129 17.3678 26.8021 13.1418 28.6562 11.1868M21.6958 19.4095C23.4529 18.002 25.6321 15.7778 28.6715 11.7872M10.3214 5.45325V5.45325Z" stroke="#FF3737"/>
<path d="M10.0138 10.5407C10.068 17.1863 14.4151 20.549 21.004 18.9308M10.0138 10.5407V10.5407ZM10.3639 9.86895C8.34864 14.7947 16.0869 20.3942 17.7023 18.0007M18.7767 19.0415C21.8874 19.9041 24.6664 20.153 30 19.914M19.4709 19.1337C23.8785 19.0049 26.8057 19.021 29.6227 18.9859M29.622 19.1913C28.9832 12.4304 27.3681 7.1349 27.5316 0M28.95 19.4733C29.7961 14.5994 29.3283 11.1394 28.5502 1.7636M29.6378 2.23857C27.6524 1.82921 25.4048 2.22644 19.4942 0.939358M29.1083 1.75853C27.112 1.47125 25.4342 1.66165 19.3536 1.60177M19.6687 1.7067C15.4473 2.07021 11.3564 6.02497 10 8.94528M20.8229 2.51455C15.2813 1.65296 8.56841 3.69465 10.5902 8.67825" stroke="#780101"/>
<path d="M10 30C10 35.5228 14.4772 40 20 40H30V20H20C14.4772 20 10 24.4772 10 30Z" fill="#874FFF"/>
<path d="M10.3537 29.9922C13.2432 27.1108 15.6034 25.2885 16.4869 23.5967M10 30.111C11.9397 28.505 14.2426 26.5381 17.1948 22.7695M10.7768 34.0711C13.8673 32.8631 17.2919 27.829 22.848 23.6286M11.8217 33.7903C14.8508 31.1358 17.9166 28.2995 22.5215 22.2126M15.1704 37.3706C18.4505 31.1422 23.3666 23.8518 30 21.9523M14.8373 36.0611C18.7119 33.487 20.5955 29.8186 28.8847 20M15.7269 39.9994C19.8904 37.0808 22.9432 31.2433 28.9414 26.3101M18.1167 39.4253C20.1383 35.5422 24.4068 30.9568 29.2453 25.7536M21.2475 40C24.6901 36.837 26.2032 34.2365 28.6682 31.7109M21.5387 39.2173C24.0645 37.128 26.1886 34.4863 28.5056 31.5426M10.0007 25.0326V25.0326Z" stroke="#874FFF"/>
<path d="M11.2913 30.3209C12.3006 33.9139 13.971 38.2641 21.4441 40M11.2913 30.3209V30.3209ZM10.0102 30.0195C9.71432 34.564 15.911 41.2124 19.9202 39.6113M20.1732 38.959C22.376 39.6802 25.0287 38.9926 30 38.7105M19.9237 39.4994C22.6912 38.774 25.1434 39.125 28.9525 39.1934M28.9491 38.0021C29.076 33.4433 27.9511 30.7272 29.4018 22.6889M29.0469 39.0098C29.2099 33.3535 28.3932 29.6735 28.3552 21.6975M29.4496 21.4873C27.6147 22.1171 23.9975 21.2464 19.7196 20.5519M29.1463 21.6426C26.3966 21.5654 23.4155 21.7426 20.4844 20.9834M20.2097 21.3952C15.9427 21.6838 11.038 26.7256 11.2365 29.2382M20.5783 20.0391C16.7763 19.3805 12.594 27.2061 11.0433 30.8627" stroke="#220069"/>
<path d="M10.876 31.07C12.8007 27.938 13.3982 27.3725 16.6607 23.8259M10.5049 30.1865C13.0277 28.0128 14.8033 25.0252 17.5579 23.1795M13.3512 34.3583C13.7894 30.6411 19.8809 28.4643 21.9582 21.0286M12.6187 34.1519C13.7968 31.6568 16.6909 28.8118 22.3793 22.8746M16.6416 37.6022C19.4069 34.2012 22.3345 30.5752 28.323 20M15.5102 35.6525C20.5334 29.6721 26.5102 23.7777 29.6044 21.193M19.8145 37.4955C22.0574 35.5268 26.9877 29.462 29.7024 24.3508M18.6666 38.2509C21.9387 35.2911 26.7776 29.546 29.6874 25.3875M23.1474 40C25.0704 37.4854 25.0598 37.051 29.6746 31.9371M22.4828 38.8339C24.3465 37.7029 25.6896 36.2959 30 31.4301M10 25.2359V25.2359Z" stroke="#874FFF"/>
<path d="M10.5087 30.3504C9.68445 33.7703 14.8804 39.49 19.8599 39.7463M10.5087 30.3504V30.3504ZM10.157 30.6904C10.0809 33.5375 15.0516 41.7656 20.8704 39.2768M19.0758 39.2442C21.8561 40.7812 25.0868 39.4313 28.8361 39.8256M19.8674 39.6703C21.5227 39.9752 23.8314 39.9062 28.8427 39.4401M30 38.5921C28.7048 33.1588 30.1502 25.07 29.1586 22.1944M29.1889 39.5237C28.6675 35.2509 29.0117 30.1668 29.5345 20M28.3297 21.6011C26.335 20.199 24.651 19.9837 19.0957 21.6659M28.3731 20.7657C25.9149 20.4485 22.5847 20.8086 19.6102 21.0679M19.6446 20.8039C13.1456 19.8075 8.86699 25.2709 11.213 29.7793M18.2596 21.2699C14.2631 18.7686 11.5277 25.2124 10 31.7048" stroke="#220069"/>
</g>
<defs>
<clipPath id="clip0_1919_5490">
<rect width="60" height="60" fill="white"/>
</clipPath>
</defs>
</svg>
