<svg width="60" height="60" viewBox="0 0 60 60" fill="none" xmlns="http://www.w3.org/2000/svg">
<g clip-path="url(#clip0_1919_5671)">
<mask id="mask0_1919_5671" style="mask-type:luminance" maskUnits="userSpaceOnUse" x="4" y="-1" width="53" height="62">
<path d="M56 0H5V60H56V0Z" fill="white"/>
<path d="M6.7951 7.89016C7.58164 5.53941 9.76239 4.24744 10.8325 2.74064M6.7107 7.95738C8.40034 5.96619 9.95779 3.78938 11.3461 2.43574M7.16863 12.9744C10.562 8.96421 13.6844 7.59524 15.7575 1.17634M7.0342 13.3435C10.013 9.63657 13.978 4.7625 16.2967 1.48617M7.80555 19.2732C10.5845 14.1715 15.9661 9.94786 20.3402 1.4226M7.25523 18.3047C11.6979 11.9547 16.562 6.07345 21.7009 1.38451M8.74883 23.3812C10.2123 17.4411 18.1256 11.7527 24.4521 1.95366M6.74227 25.0327C14.0526 15.7822 20.1681 8.96709 25.8502 2.32966M5 29.5364C16.9587 21.5801 26.0395 8.7193 31.3357 2.79139M6.33333 29.374C13.1939 23.2759 17.9994 15.6637 31.0142 1.25952M5.03075 36.5715C17.3359 26.0367 27.429 14.1991 35.7499 0M6.15703 35.3553C14.0964 27.3149 22.1941 17.4348 36.3407 2.05626M7.13919 41.5605C18.3139 29.9451 29.6711 14.0476 41.4861 3.49125M7.1042 41.87C17.1146 28.0323 29.7261 14.9416 39.955 1.73789M8.3655 47.647C20.6666 30.0474 37.195 11.4709 44.9358 0.604382M6.83452 47.7409C14.4417 38.4694 23.7045 28.2807 45.7881 0.84549M5.85815 53.8839C23.8199 36.087 37.341 16.7627 50.1211 0.739671M7.3859 51.9536C20.4535 37.7166 33.3633 20.755 50.4097 1.42568M7.43018 58.848C23.44 38.7413 41.5045 15.5491 54.8103 4.20687M8.06715 57.8805C25.241 37.7465 42.2518 16.1655 54.4801 2.83186M11.4361 57.0075C25.682 44.8794 38.6414 28.5257 54.4024 10.1026M12.6196 58.4288C27.3997 39.8976 43.613 22.5144 53.3489 8.16116M17.1733 59.1739C28.9705 41.6061 42.5633 26.0241 52.386 13.6073M16.6955 57.2373C25.3538 48.5211 33.0876 39.7037 54.6858 14.4462M21.7678 57.0118C29.9563 50.121 35.316 39.2903 55.7703 20.0493M21.1051 58.8274C31.0907 47.087 40.5848 35.7012 55.0959 19.0294M26.5788 59.4758C37.4252 47.4074 47.1312 36.3809 52.6489 25.5929M26.5424 58.6703C38.0879 45.756 48.1031 32.7244 54.652 26.3013M31.5575 59.0041C39.882 49.6901 46.777 39.7822 54.1964 33.0987M30.8509 59.0496C40.5363 48.8644 47.7098 38.1923 54.2334 31.691M37.8638 56.1118C41.1676 50.0257 49.8201 42.3076 56 37.4542M36.5435 57.7187C42.2229 51.1376 48.1234 44.0413 54.7683 36.1373M39.5332 60C43.5757 52.6051 48.8779 47.8374 55.6139 42.8507M41.1162 57.444C43.7876 54.0148 47.3121 50.5797 53.9113 42.6221M45.7124 58.2901C48.1432 53.023 51.3195 49.4384 55.2957 47.8109M46.1857 57.898C48.1527 55.5761 49.483 53.4991 54.6708 47.7957M50.9449 58.4567C51.5647 57.6322 51.8325 56.4251 53.7011 54.2051M50.344 58.1665C51.3573 57.2239 52.1201 56.8054 54.1161 54.1002M6.72397 1.89342V1.89342Z" stroke="white"/>
<path d="M6.98765 0C20.8253 0.695422 39.149 0.670793 55.0608 3.34484M6.37331 0.61259C19.9477 2.25514 34.4663 1.63402 55.7796 1.26921M55.6626 2.38938C55.4119 25.3754 54.8923 47.7282 56 59.8393M55.8779 2.29323C55.0261 17.2635 54.3011 32.6134 54.9788 59.3271M54.4028 59.9531C35.7592 60.4273 19.0613 57.1514 6.01766 57.1895M55.2878 58.241C36.4338 58.7741 17.6954 58.2918 6.33124 59.2689M7.02039 59.4618C6.31863 39.0726 4.1323 21.4547 6.70408 3.18209M5 58.9514C5.03147 45.4055 6.19269 32.0982 6.31485 1.29689M5.78379 1.45918V1.45918Z" stroke="white"/>
</mask>
<g mask="url(#mask0_1919_5671)">
<path d="M9.7123 52.7777L5.55469 0.694336H55.446L51.2884 52.7777L30.5003 59.0277L9.7123 52.7777Z" fill="#E44D26"/>
<path d="M8.687 53.7276C7.39585 36.308 6.90965 15.2919 5.55469 3.01973M10.7156 52.732C9.18247 34.3822 7.90242 16.8438 5.58038 1.78204M7.12375 3.41309C16.8674 2.47783 32.0683 1.23799 55.446 0.714183M6.39338 1.58472C19.3705 0.95129 34.0706 2.61645 54.6317 1.75126M53.7068 0.694336C53.551 16.0788 53.3819 31.9527 51.1764 52.5494M53.876 2.4646C54.2314 12.6071 53.1738 24.8562 50.9662 52.8542M49.1488 53.0456C43.1412 53.4337 36.3349 56.8056 29.9825 58.2869M50.8752 53.7461C43.9147 55.3869 35.6108 57.9924 30.7753 58.3453M31.1309 59.0277C23.0483 55.201 16.5815 55.4627 10.8154 54.4104M30.3118 58.1032C23.7056 57.2593 17.8014 55.1159 9.42564 52.7672M10.0383 52.8739V52.8739Z" stroke="#380C00"/>
<path d="M51.288 4.86133H30.5V55.903L47.1304 50.6947L51.288 4.86133Z" fill="#F16529"/>
<path d="M31.7592 11.7479C33.0576 9.26871 34.4814 7.86902 36.4587 6.2822M31.7377 11.2985C32.4923 9.67421 33.7616 8.29375 35.8726 6.11043M31.0518 16.8529C35.4435 13.084 36.8489 10.5665 39.961 5.65678M32.3355 16.9144C35.7994 12.1871 38.6476 8.8915 41.7491 5.19061M31.0835 23.8072C35.9156 19.2557 37.605 14.4173 44.4509 7.48862M32.2441 22.759C34.8644 18.251 39.8341 12.8332 46.5171 5.50242M30.5 27.7019C38.4429 18.8502 46.1915 9.99924 51.288 6.7966M31.9245 28.805C38.1805 21.5423 43.1842 14.3029 50.4023 4.86133M30.6526 34.4349C37.2434 29.1599 40.1064 25.6071 48.2644 11.4538M31.5725 33.3073C36.3537 28.7841 40.3992 24.6531 50.5367 12.1229M32.0581 40.6448C38.964 32.8462 44.6886 23.6551 49.8208 18.5312M32.3861 39.5602C37.1371 32.899 41.3745 27.8421 50.2002 18.4756M33.1925 45.2368C37.0451 38.862 42.0506 31.0095 48.985 23.3739M32.2454 44.9151C37.3187 37.4797 44.2172 31.2111 48.284 24.8564M32.0604 52.6511C37.8516 44.8327 42.7142 37.1662 47.5907 30.2667M32.5017 51.4278C36.6683 45.1733 41.4817 40.9472 48.4547 32.3693M32.477 55.903C35.5015 52.3352 41.2946 44.9377 46.1102 36.1384M32.4656 55.8848C37.7057 49.4832 41.1702 45.4459 48.4365 36.6041M39.8151 51.5915C40.9187 50.1282 42.005 49.0335 47.2286 43.6532M40.4501 52.153C42.1402 49.8656 44.9471 47.1427 46.5327 43.9238M31.7478 5.54659V5.54659Z" stroke="#F16529"/>
<path d="M16.989 30.903L14.9102 11.1113H47.1316L46.0922 17.3613H21.1466L22.186 24.653H45.0528L42.974 44.4447L30.5012 48.6113L18.0284 44.4447L16.989 34.028H23.2254L24.2648 39.2363L30.5012 41.3197L36.7376 39.2363L37.777 30.903H16.989Z" fill="white"/>
<path d="M15.6779 16.7859C15.9519 15.1651 18.236 14.8505 19.8764 12.1254M15.3606 16.7764C17.096 15.4508 18.307 13.4418 19.7791 12.0955M16.2173 21.8206C18.0441 17.8125 22.5869 14.3006 24.901 12.674M16.3315 21.9782C19.5851 18.4618 21.4309 15.6081 26.1589 11.3792M16.6588 27.1835C18.7901 24.2297 21.7253 22.6047 23.7563 20.0257M16.8296 26.86C19.8018 23.8241 21.536 21.5813 23.2826 19.5133M22.3256 20.0394C24.3205 18.3064 27.7149 15.0709 30.6896 11.1113M22.9927 19.9844C25.3946 18.2643 26.2962 16.3334 30.8031 12.1956M18.0018 31.664C19.0842 29.3125 22.2898 26.554 24.3673 25.6696M17.9472 30.8737C20.3926 29.1473 21.8357 26.4289 24.2137 25.1742M28.1778 19.2838C32.0756 17.1713 34.1065 13.759 36.0489 12.141M28.9169 19.0791C30.8612 17.4287 33.3479 14.5797 35.92 11.1691M23.4391 30.6145C24.8753 29.5987 25.7256 28.6628 28.5474 25.6005M23.9378 31.0875C24.9808 28.904 27.0597 26.8131 28.8681 25.2611M34.6532 20.1581C36.0036 16.8035 39.6821 14.2672 41.6167 11.2021M34.1443 19.2127C36.4217 17.247 38.2494 15.3938 41.9212 11.9916M20.399 40.3805C21.6862 39.1082 22.4037 37.1758 24.8364 35.0631M20.0798 40.4036C21.8411 38.1912 23.2751 36.7125 25.1244 34.5047M29.3557 31.5375C30.5218 29.1951 32.4848 28.6332 34.69 25.2865M28.9359 30.6825C29.9915 29.5804 31.287 28.7164 34.4475 24.933M39.133 18.3634C42.5423 17.2319 42.7682 14.373 47.1316 12.4495M39.8023 19.3963C42.9046 16.3389 44.5864 14.0354 46.7969 11.8878M20.2455 43.9969C22.6539 42.3001 24.3233 40.0972 25.9633 39.5585M21.3159 44.8064C22.3488 43.6149 23.8568 42.0588 26.3515 39.1425M33.5951 30.7761C35.9558 29.9274 37.1038 28.8986 39.4427 25.0114M34.1673 30.3953C36.0346 28.8869 37.7484 26.8999 39.4371 24.8207M26.0341 46.2424C26.831 43.589 28.5224 42.5845 31.1004 39.8724M25.5402 45.7815C26.7211 44.2927 28.6437 42.8516 30.5401 40.4035M38.7294 30.5119C42.4261 28.6765 43.5867 27.2879 47.0305 23.9949M39.6209 30.8409C40.5783 29.8043 42.0818 28.2853 45.7035 24.3735M30.1557 46.7921C34.0438 45.5206 35.7167 39.1817 43.5296 32.013M30.0983 47.4471C34.7673 41.2099 40.7892 34.6456 44.2195 31.4168M33.4529 47.4226C34.6838 47.1854 38.2517 43.9594 44.2949 36.0909M33.8458 48.6113C37.8743 43.7039 42.0298 39.4614 44.2443 36.754M14.9102 11.6968V11.6968ZM19.5708 34.9417V34.9417Z" stroke="white"/>
<path d="M18.7479 31.7922C15.7553 24.7269 15.0016 16.699 16.5947 11.4547M18.7795 30.6158C17.4154 24.6694 16.0011 16.9752 15.9711 12.6351M14.9102 11.1113C23.0066 11.4561 33.9248 10.9868 47.1316 11.8475M15.492 11.5814C24.7606 12.7503 32.4958 13.4793 45.4305 12.1656M45.5208 12.4072C44.4721 14.7372 45.0064 16.3737 43.9658 18.2873M45.5878 12.4805C45.2372 13.4497 44.6981 14.9658 44.5073 18.1636M43.049 18.3518C37.8683 17.7836 30.6656 17.9474 20.1425 16.6553M45.2402 17.6371C36.4819 18.3089 28.7257 18.5115 21.942 17.332M21.862 18.3578C21.568 19.6173 23.0557 22.9447 22.9853 25.3119M21.9156 18.0182C21.9294 20.6604 22.7124 22.6312 22.4009 25.354M23.011 24.5274C25.695 24.8769 32.838 26.172 43.799 24.988M22.0205 24.686C29.3573 24.3011 35.0759 25.3787 42.6942 25.568M43.3699 24.5133C41.2471 30.8952 42.8351 39.9693 42.3164 43.1303M42.5981 25.7739C43.9065 31.5321 43.2838 36.7888 41.1017 43.2758M40.7618 42.8088C40.3638 44.6152 36.7165 45.573 31.0757 46.7211M40.9922 43.4332C37.5746 45.0412 32.9776 46.9725 30.2593 47.4304M30.7864 48.6113C26.6486 46.9837 25.7536 44.6448 18.9948 44.0264M30.3042 48.073C27.9228 46.6906 25.6458 46.2936 19.1317 43.8107M19.558 44.6931C19.1752 40.6183 17.9745 36.027 18.0369 33.3427M19.343 43.6505C19.1585 40.7296 18.7773 38.181 17.658 34.3936M18.5863 33.5059C19.4379 34.4275 20.1709 33.5676 24.188 34.4797M18.1245 34.1736C19.9539 33.7637 22.2113 33.779 23.9311 33.8919M23.5857 34.1365C23.5252 35.3318 24.6537 37.8536 24.7894 38.5323M23.6011 33.9343C24.1276 35.7274 24.0581 37.3082 24.6321 38.9153M25.1625 38.7157C25.6713 39.6569 27.595 39.4051 30.371 40.7001M24.7277 38.6707C25.8846 39.4107 27.7255 39.5985 30.2006 40.4849M29.8252 40.2573C31.0332 40.3041 33.0564 39.5289 36.3783 38.4275M30.3064 40.8211C31.5767 40.6056 33.3922 39.8591 35.8183 38.9246M35.9621 38.7874C36.4098 35.7205 36.3899 33.5137 36.5842 30.9873M36.0974 38.9735C35.9347 36.3848 36.628 33.6742 36.8479 31.1416M38.2283 32.8368C32.2394 30.6343 26.1841 32.4309 18.6103 32.3511M36.3627 31.525C30.6874 30.2129 23.2558 30.5715 17.6683 30.1236M18.0252 30.9723V30.9723Z" stroke="#380C00"/>
</g>
</g>
<defs>
<clipPath id="clip0_1919_5671">
<rect width="60" height="60" fill="white"/>
</clipPath>
</defs>
</svg>
