<svg width="60" height="60" viewBox="0 0 60 60" fill="none" xmlns="http://www.w3.org/2000/svg">
<g clip-path="url(#clip0_1919_5645)">
<mask id="mask0_1919_5645" style="mask-type:luminance" maskUnits="userSpaceOnUse" x="-1" y="-1" width="62" height="62">
<path d="M60 0H0V60H60V0Z" fill="white"/>
<path d="M1.87512 7.6329C2.05105 4.97317 3.64974 4.82329 5.52243 1.73464M1.31985 7.32246C2.27613 5.72329 3.49729 4.42191 6.22554 1.10789M2.62511 12.5797C3.69881 8.14014 5.91047 6.54717 12.2898 0.697391M1.11181 12.7306C5.24154 8.47309 8.88337 3.552 11.9407 0.705927M3.17059 16.7258C3.60864 13.926 7.35572 10.6776 14.5048 0.32201M2.33382 18.1597C5.27665 13.7637 9.43918 9.18953 15.3911 1.21377M0 25.359C8.42881 14.7924 14.2165 9.0677 20.2461 0.94699M2.23897 24.0039C6.54335 18.7279 11.3101 13.6444 21.5893 1.20131M3.00296 31.1282C7.49572 23.8818 14.6884 15.6461 26.1483 2.13415M0.983515 30.19C10.931 19.4941 20.0442 8.73366 25.775 1.85379M0.538468 35.4941C8.06624 28.2377 13.6263 20.8564 30.9576 0.35498M0.755931 36.0448C12.3775 23.4924 22.0585 11.1228 30.3638 0.834578M2.12923 40.047C7.73173 31.2139 16.5137 22.837 34.3447 2.14952M1.79629 42.3592C9.36689 32.8253 15.3167 24.676 34.5297 1.91766M2.81981 48.0448C14.9658 32.3546 25.5395 17.9288 42.1844 2.64881M0.798118 47.6958C15.2197 31.2157 29.4914 12.3694 39.8196 1.4809M2.25942 54.1495C10.9721 41.6009 19.8469 30.4493 44.8832 2.57265M2.53527 52.6199C12.2158 41.7437 21.1917 29.3379 45.7469 1.76418M0.606997 58.0807C18.0916 38.6987 35.4924 20.8489 50.4958 0M2.30818 58.066C19.5511 38.4602 37.7995 17.1121 51.0766 0.265509M7.698 56.8456C16.9103 42.7987 31.2478 29.7902 53.8466 1.61502M6.17277 57.698C22.556 40.5978 40.1752 19.5849 54.088 1.40143M11.3386 59.1507C24.0518 43.859 32.6589 32.509 60 4.64846M11.0452 59.0689C23.2522 45.1854 32.7175 33.7828 57.2881 2.17865M17.997 60C31.7312 40.1206 48.6608 21.9908 57.0809 8.18512M16.5857 57.785C25.1003 47.5891 34.5942 35.6136 57.8379 7.80399M20.4741 57.8981C37.0827 39.6152 48.9162 24.5319 57.201 14.1133M22.1119 58.8359C30.406 46.9061 39.6711 36.3176 57.4611 14.9706M24.4067 57.5635C37.3986 46.8557 46.0644 34.5411 57.3169 21.144M26.5916 59.162C35.5449 47.0963 46.1507 35.2984 58.5168 19.124M30.3991 59.0181C38.3512 47.1344 46.7244 37.7157 58.1946 24.3568M32.2775 58.1943C38.972 47.8853 47.8797 38.5655 58.9398 26.6838M35.411 58.8643C42.642 51.0421 46.4879 45.8681 58.3724 30.9027M36.3469 59.2167C45.4189 47.4824 53.1129 38.3327 57.6784 31.1354M41.5064 57.7895C45.2439 50.2747 53.7104 44.221 58.9021 38.2905M40.3979 57.5694C46.3384 53.2803 51.0336 45.7927 58.1508 36.8318M44.9453 58.7175C52.0586 53.604 54.8051 46.3678 56.5524 42.703M44.9806 58.9313C50.6383 53.638 54.3512 49.0404 58.3022 43.3606M50.5338 57.6485C52.5898 56.2779 55.6736 51.2603 58.8586 48.5865M50.1893 58.4355C51.8467 57.0357 54.1428 54.5774 58.4654 48.7515M55.3219 58.9042C56.2644 57.6399 57.0679 56.9452 58.0912 54.8865M55.2915 58.5419C55.9203 57.9496 56.803 57.2604 58.6419 54.8013M1.5681 0.917047V0.917047Z" stroke="white"/>
<path d="M1.19121 0C14.247 1.88833 28.7358 0.930481 58.5938 1.16735M1.88694 0.780325C18.8138 0.791506 36.2674 0.611795 57.9466 2.09631M59.6231 1.41801C57.4905 14.914 56.9241 29.853 60 59.1349M58.7375 0.610595C58.2975 16.2534 58.2876 32.9839 57.5288 58.7911M56.6348 57.2598C46.2525 59.2682 31.23 56.1703 2.7494 59.8599M59.3207 57.6645C45.043 57.1128 33.3398 57.0944 0.419604 58.3702M0.0994169 60C1.58846 36.4798 2.5424 11.8184 0 0.509193M1.23007 58.7547C0.328519 45.6632 0.974799 32.4467 1.16716 0.484365M1.06996 1.17362V1.17362Z" stroke="white"/>
</mask>
<g mask="url(#mask0_1919_5645)">
<path d="M10.625 4.83612e-06H49.375C50.7707 -0.00134432 52.1529 0.279605 53.4426 0.826775C54.7322 1.37394 55.9041 2.17659 56.8909 3.18878C57.8778 4.20097 58.6604 5.40283 59.1939 6.72558C59.7274 8.04832 60.0013 9.46599 60 10.8974V49.1026C60.0013 50.534 59.7274 51.9517 59.1939 53.2744C58.6604 54.5972 57.8778 55.799 56.8909 56.8112C55.9041 57.8234 54.7322 58.6261 53.4426 59.1732C52.1529 59.7204 50.7707 60.0014 49.375 60H10.625C9.22934 60.0014 7.84712 59.7204 6.55744 59.1732C5.26776 58.6261 4.09595 57.8234 3.10906 56.8112C2.12218 55.799 1.3396 54.5972 0.806106 53.2744C0.272615 51.9517 -0.00131071 50.534 4.7152e-06 49.1026V10.8974C-0.00131071 9.46599 0.272615 8.04832 0.806106 6.72558C1.3396 5.40283 2.12218 4.20097 3.10906 3.18878C4.09595 2.17659 5.26776 1.37394 6.55744 0.826775C7.84712 0.279605 9.22934 -0.00134432 10.625 4.83612e-06Z" fill="#330000"/>
<path d="M1.24962 11.1545C3.54281 10.9825 7.26457 7.08345 12.4955 0.100427M1.52016 12.7956C5.52763 9.03635 8.10959 5.01558 11.1264 1.37274M0.5579 20.0419C5.82509 14.9111 8.46008 11.815 17.6286 3.65582M1.04087 18.289C4.27453 13.9553 8.48193 9.70037 15.9621 1.89803M2.39544 23.1845C5.96813 17.5859 13.6618 9.28969 19.8556 3.36063M2.59529 23.8757C8.90416 16.0805 15.267 7.75959 20.7093 1.141M1.13648 29.4844C10.7897 21.8575 19.0237 12.2947 26.3001 2.01487M0.555633 29.9087C10.0887 20.5359 16.862 12.0205 26.2343 0.920777M0.293188 35.0838C12.8639 22.4942 25.3309 9.0587 31.3622 0.210383M1.69778 35.0375C8.58886 28.1222 15.4171 20.098 32.0852 1.18046M0.178625 42.4621C8.90905 31.7661 20.6443 21.3385 36.4853 1.91959M1.86719 40.9536C15.5168 26.2564 29.0294 10.8132 35.9051 1.59489M0 49.1976C13.9406 37.0694 21.6507 23.4945 40.7669 0M1.45302 47.0056C10.4098 37.5391 20.3157 26.0091 42.3143 1.50265M1.90827 53.4299C11.1632 39.5016 20.0901 30.5119 48.124 3.35958M3.11942 51.08C12.9639 40.4964 23.7321 28.013 47.5957 2.57863M3.56598 56.192C22.9198 37.7989 38.5761 17.2281 50.4804 2.65245M3.09227 56.0551C20.902 36.3443 37.7982 18.1742 50.8099 2.85679M6.12514 58.0831C23.5879 36.6739 41.8182 17.6556 55.713 5.89313M8.00397 57.5084C23.1565 40.7288 37.5177 24.4946 55.1132 4.97517M10.1984 57.2982C23.2157 43.993 36.1034 32.3776 59.1489 8.17662M12.7844 59.0047C24.13 45.5444 33.7154 33.599 58.6022 6.34814M16.5643 59.1268C31.7801 41.7966 45.8143 26.429 57.3187 12.6414M16.7331 57.9545C30.9893 42.3563 43.4717 27.226 58.1449 11.2487M20.583 59.9203C33.4565 47.5501 41.0831 37.3842 57.9917 18.2778M22.8568 58.0802C35.776 43.223 48.0381 29.0011 59.6691 16.9377M28.2294 60C35.0297 47.0348 45.1042 38.8508 57.9553 23.5083M26.522 57.7219C34.8724 50.3604 43.2738 41.2105 58.2756 22.3686M32.0459 59.3312C41.5967 47.3293 51.918 35.2194 60 27.4357M31.9218 58.0956C42.2409 46.1471 52.4229 35.3722 59.582 28.2161M37.6802 57.2734C43.4005 51.8084 50.0279 44.756 59.3289 33.5746M37.7453 58.6106C44.3333 50.4694 49.789 44.4324 59.9505 34.0632M41.9713 58.6907C48.2341 50.7841 54.204 46.987 59.2823 38.6752M43.6081 58.3211C47.1677 52.9377 50.3588 50.3481 58.9064 40.0357M48.0492 57.1361C52.0116 55.8809 53.2541 53.1882 59.8792 47.2687M47.9278 58.5786C52.5196 54.3607 55.8045 48.9862 58.3452 45.1019M3.78879 4.02165V4.02165Z" stroke="#330000"/>
<path d="M10.2432 1.16745C19.7715 -0.504176 26.8654 1.54314 49.0471 0M11.654 1.44232C22.6806 0.0608909 33.7602 1.1688 48.3926 0.179452M48.3963 1.10214C51.6065 2.83015 49.6521 2.5474 53.4229 0.438719M48.1112 2.21278C51.1887 3.26548 50.7244 1.50833 53.1895 2.55377M52.2962 1.88986C52.0629 3.16387 55.4663 4.45838 56.7151 4.47368M52.4098 3.30429C52.6149 2.42635 54.7867 2.61936 54.48 4.79823M55.6023 4.14031C58.0511 6.43498 59.176 6.12995 56.3905 6.9809M56.5543 5.04807C58.6702 5.24779 57.6615 4.88616 60 7.48227M57.8104 7.51006C60.0956 7.08096 59.3157 8.47816 59.564 10.6263M58.1482 7.1239C59.7147 7.8094 58.3266 11.0011 58.9202 12.7401M58.8467 11.7296C59.6085 19.2158 59.3655 28.4455 58.5946 46.4846M58.76 11.6803C58.9086 19.8298 58.4475 26.0176 57.806 47.9686M58.5833 47.8856C59.8951 49.0778 59.4894 49.3688 56.5585 50.1933M57.3677 48.171C59.6484 49.4519 57.2535 48.7153 58.6555 50.5394M57.8104 51.8604C57.0973 53.8083 56.7968 55.6472 55.1851 54.0837M59.2501 51.9644C58.048 54.9945 56.8089 56.0925 56.8873 56.0632M55.6023 55.2301C54.9493 54.565 54.137 57.4536 51.4958 59.1787M55.1372 56.3994C56.373 54.6418 53.4975 59.1148 53.6048 59.6099M52.2962 57.4806C51.7764 58.7029 50.4878 57.0882 49.2459 56.5809M53.9955 56.264C48.9706 56.9402 48.586 57.3354 47.5485 58.9111M47.9227 60C37.2957 57.9044 26.303 57.1172 11.7932 56.7419M48.1812 57.9725C37.4025 58.0971 25.0091 58.7154 10.9012 58.6405M11.2436 58.2683C9.9026 58.4923 7.49263 56.4523 9.13392 58.4737M12.3635 56.7455C11.3538 57.8914 9.9755 58.8351 6.49823 58.0464M7.34367 57.4806C7.14251 58.4951 3.55104 56.9909 5.4038 57.07M8.00202 59.3692C5.6549 57.985 4.13694 57.2308 4.24313 53.3187M4.03743 55.2301C4.77714 55.1027 1.99778 54.6983 2.05287 52.762M2.44758 55.1768C0.972205 52.43 2.14266 53.7683 1.50801 51.0277M1.82941 51.8604C0.483549 51.0583 2.64237 48.8918 0.59102 48.6835M1.36711 50.3133C2.91933 51.8475 1.41338 49.9755 2.33609 47.8882M2.82601 48.948C-0.295743 35.8112 0.00888841 20.8927 1.66838 10.2951M1.25628 47.8137C0.111096 36.3642 1.32676 23.7487 0.340554 11.3338M1.05654 11.4848C2.18627 8.94601 0.153509 8.27013 0 6.42032M2.5057 11.6799C2.80805 9.55726 2.17718 10.9547 0.474277 8.89166M1.82941 7.51006C3.17438 4.92681 2.47206 4.95913 5.77607 5.42803M1.26901 8.68723C0.596494 4.59998 1.38175 5.41736 1.86786 3.70542M4.03743 4.14031C3.36998 1.35846 4.78568 3.84818 8.61735 0.390417M2.7083 5.25282C5.32392 4.10567 4.89054 3.85454 9.23086 4.0753M7.34367 1.88986C9.70334 0.649193 10.6081 0.418453 10.3468 0.064534M8.61419 0.690699C10.1863 0.67407 11.9888 0.675288 13.0099 2.65516M11.2436 1.10214V1.10214Z" stroke="black"/>
<path d="M29.0758 36.0004H19.7758L17.8758 42.026C17.8546 42.1359 17.7941 42.2336 17.7062 42.3C17.6183 42.3664 17.5094 42.3968 17.4008 42.385H12.7008C12.4258 42.385 12.3508 42.2312 12.4258 41.9235L20.4758 18.1542C20.5508 17.8978 20.6258 17.6158 20.7258 17.3081C20.8264 16.7586 20.8767 16.2006 20.8758 15.6414C20.8683 15.5772 20.8848 15.5125 20.9219 15.4602C20.959 15.4078 21.014 15.3719 21.0758 15.3594H27.5508C27.7508 15.3594 27.8508 15.4363 27.8758 15.5645L37.0008 41.9748C37.0758 42.2568 37.0008 42.385 36.7508 42.385H31.5258C31.4375 42.3937 31.3489 42.3703 31.2758 42.3187C31.2026 42.2671 31.1495 42.1907 31.1258 42.103L29.0758 36.0004ZM21.2258 30.7953H27.5758C27.4258 30.2568 27.2258 29.6158 27.0008 28.9491C26.7758 28.2825 26.5508 27.5132 26.3258 26.744C26.1008 25.9748 25.8508 25.1799 25.6008 24.385C25.3508 23.5901 25.1258 22.8466 24.9258 22.103C24.7258 21.3594 24.5508 20.7183 24.3758 20.103H24.3258C24.1011 21.2205 23.8174 22.3247 23.4758 23.4107C23.1008 24.6414 22.7258 25.9235 22.3258 27.2055C21.9758 28.5132 21.6008 29.7183 21.2258 30.7953Z" fill="#FF9A00"/>
<path d="M17.3846 25.4993C20.8396 21.1871 22.9564 18.0801 25.6282 16.0019M18.1182 25.4303C20.5213 21.6422 23.4874 18.7154 26.5954 16.0601M13.8794 34.1023C20.4397 30.087 22.5426 25.552 27.2292 22.4682M15.1939 33.8069C17.2897 29.6289 21.7669 27.4575 26.3426 22.4129M25.6734 21.1952C27.7252 20.2618 28.7468 18.4507 29.9489 17.713M25.7255 21.7264C26.6581 20.636 27.4381 19.5472 29.5479 17.2466M12.3984 41.7101C16.7625 39.0929 18.1062 36.2539 22.1424 31.5064M13.5132 40.4915C15.8911 39.0433 17.7142 36.915 22.006 30.7828M27.5078 25.8439C28.8272 24.9989 29.5274 23.3223 31.0063 21.4027M27.2822 25.5042C29.1848 24.1386 30.6238 22.0161 31.3459 21.3482M21.877 38.431C26.5989 32.0593 29.5112 28.7715 31.3459 25.5936M21.394 37.7318C24.2729 34.3888 26.8546 31.7928 33.0193 26.5445M28.6307 35.1881C30.385 33.3989 31.4122 32.2271 34.7307 29.2821M28.7552 35.6286C30.2741 34.0908 31.7505 32.276 34.2614 29.9316M30.3904 39.8507C30.9411 38.8331 33.3006 37.0012 35.9383 33.5477M31.0096 39.3503C32.4716 37.8506 34.3533 35.9813 35.8849 33.3518M32.3862 42.3819C34.4175 40.7531 35.8703 40.0325 37.0286 37.8885M32.7782 42.3875C33.8622 41.3042 35.0101 40.0045 36.8106 38.1193M21.2328 15.3594V15.3594Z" stroke="#FF9A00"/>
<path d="M28.7801 35.4606C27.4207 35.0632 25.0987 35.8636 19.8068 35.006M28.6716 35.2794C25.5492 35.4178 22.4406 35.6495 20.5072 35.0799M21.0775 35.2225C20.5167 36.3222 19.273 38.4195 19.0595 40.8832M20.2951 35.2773C20.0197 36.651 19.7752 38.0143 18.8191 40.5376M18.842 40.6874C17.8221 39.3721 18.4245 40.3324 17.8844 41.8176M17.2665 39.8089C16.8861 40.031 20.5047 39.3819 17.7216 41.4414M18.6886 40.9302C17.9719 40.2186 18.9902 41.5302 16.9688 42.2112M19.1673 40.6986C17.5099 39.6817 20.4909 39.6908 19.0496 41.1985M18.0583 40.7197C17.7514 41.04 16.6653 40.9735 14.4648 41.003M18.2653 40.8573C17.2771 40.9394 16.3022 41.1676 14.2352 41.0938M14.1613 41.0055C13.2954 39.7913 12.1515 39.9912 15.373 40.1504M12.4072 41.643C12.2301 39.7286 14.793 42.2896 14.1657 39.0541M15.7184 38.85C16.1389 35.817 18.9924 29.4204 21.4935 20.7029M13.8667 41.4088C17.0897 33.491 18.906 24.5929 21.8352 20.2526M21.1937 19.5342C23.0448 17.9887 20.8993 17.5918 20.3363 18.5696M22.4285 20.8188C19.2992 21.0128 22.9723 18.6595 22.539 17.7172M21.4199 18.7844C21.5585 18.7134 20.9098 16.89 21.5248 17.5983M20.4944 20.3208C23.0718 19.1575 21.3838 19.6825 20.9634 15.3594M21.5555 17.3075C19.9145 16.299 22.6163 18.8186 22.0126 17.2629M23.2946 15.9778C22.7756 17.0569 20.1771 18.5828 23.3974 18.9177M21.5972 17.147C20.7599 16.689 19.9883 16.1427 22.0998 16.4968M21.3588 17.1782C20.897 18.4093 20.4784 18.5414 21.1139 16.7519M21.4015 16.6977C23.4574 16.9736 26.2904 17.3899 27.1763 17.348M21.9304 17.2547C23.6135 17.1442 24.8467 16.9809 27.4409 16.8979M27.5931 17.0577C26.4457 16.2636 29.1492 17.1858 26.5531 18.8499M26.0519 17.3481C26.2284 16.9472 27.7402 15.7655 26.6974 16.3684M29.6104 18.9924C31.0791 25.0548 30.8207 32.0128 34.7124 39.6751M27.5868 16.4749C28.7884 21.5572 31.4714 26.2045 36.9557 41.3791M36.1406 40.642C37.3155 40.5238 35.752 39.727 37.0286 39.432M34.8201 40.1274C34.2632 40.0492 35.22 40.8352 36.1951 39.788M35.8977 40.5443C34.6943 40.8519 33.5581 41.0384 31.0777 41.3057M35.757 41.1827C34.8811 41.0855 33.7062 40.7402 31.3457 41.201M31.1884 41.0055C31.8186 40.6079 31.1364 40.621 32.3796 39.9174M32.1205 41.6342C29.3577 42.7816 30.5981 42.6854 28.9692 40.8791M30.9623 40.9468C31.6485 40.0109 32.6012 39.3385 31.2475 41.399M30.9027 42.3674C31.0714 42.2126 29.7664 41.1773 32.5831 42.004M31.316 41.1966C30.6608 38.8562 29.5032 37.6192 28.4305 35.3655M31.0562 41.0243C30.4558 39.0575 29.7895 37.3918 29.1791 35.4262M22.1237 30.9117C23.4834 31.1302 26.4051 30.2495 28.0852 30.224M21.8858 31.0006C23.8753 30.4412 25.8476 30.4874 27.3461 30.9643M27.6157 30.7357C28.7973 31.2251 26.1043 28.6101 26.752 27.5503M28.5243 31.9697C29.1984 30.6583 27.0423 29.1616 28.6807 30.1435M27.0956 29.0997C28.0425 28.0546 25.3646 27.5329 28.0163 27.3962M27.7726 27.7531C25.4079 27.396 28.2034 25.9493 25.1151 26.1049M26.485 27.1458C25.6358 25.1138 26.4942 24.7584 27.0166 25.2801M27.2885 28.5238C25.2004 28.0367 25.647 24.1738 26.3626 26.9713M25.8293 25.0554C26.5544 24.1953 25.6505 25.45 26.1956 21.3171M26.1043 24.2007C26.2885 24.2647 25.0882 24.8399 25.1859 24.4196M25.2188 23.0333C26.3791 22.8474 23.2525 20.6863 25.0756 22.2434M25.6417 22.0008C25.1393 23.3778 26.6407 22.9289 22.6467 19.6951M24.7257 21.2604C24.7104 21.2605 24.6977 21.2625 24.6797 21.2583M24.721 21.2616C24.7081 21.262 24.6914 21.2614 24.6769 21.2624M24.6761 21.2611C25.0799 21.4193 22.6065 24.6228 24.8073 23.3155M23.7436 20.8854C23.0111 22.666 24.7931 22.3651 24.1576 22.9272M23.9072 24.1921C24.0973 24.3378 22.3391 27.102 21.2845 28.6829M25.2238 23.9203C24.7558 25.2171 22.1353 26.0173 24.9021 27.4776M22.8671 27.5547C21.1376 27.1885 20.413 30.8647 22.5619 31.9594M24.5726 26.3211C22.1345 29.7213 24.042 29.2501 22.0391 29.4993M28.9724 35.348V35.348ZM21.8721 30.7357V30.7357Z" stroke="#C07400"/>
<path d="M42.4519 19.7436C42.0415 19.7528 41.6335 19.6782 41.2515 19.5242C40.8695 19.3701 40.5212 19.1396 40.2269 18.8462C39.6541 18.2038 39.349 17.3572 39.3769 16.4872C39.3621 16.0633 39.4346 15.641 39.5897 15.2478C39.7448 14.8546 39.9789 14.4993 40.2769 14.2052C40.8778 13.6226 41.6751 13.3011 42.5019 13.3077C43.4769 13.3077 44.2269 13.6154 44.7769 14.2052C45.3307 14.8269 45.6266 15.6454 45.6019 16.4872C45.6171 16.9204 45.5476 17.3524 45.3973 17.7576C45.247 18.1627 45.019 18.5329 44.7269 18.8462C44.4323 19.1539 44.0768 19.3933 43.6843 19.5481C43.2919 19.7029 42.8716 19.7696 42.4519 19.7436ZM39.6519 42V22.2564C39.6519 22 39.7519 21.8975 39.9769 21.8975H44.9269C45.1519 21.8975 45.2519 22.0257 45.2519 22.2564V42C45.2519 42.2821 45.1519 42.4103 44.9269 42.4103H40.0269C39.9743 42.4147 39.9215 42.4069 39.8723 42.3875C39.8231 42.3681 39.7788 42.3375 39.7428 42.298C39.7067 42.2586 39.6798 42.2113 39.6641 42.1597C39.6483 42.1081 39.6442 42.0535 39.6519 42Z" fill="#FF9A00"/>
<path d="M41.765 18.1812C42.4517 17.2514 43.5895 15.6536 45.6039 14.0911M41.3091 19.1765C41.9385 17.3425 42.956 16.5544 44.9324 13.3076M39.783 27.5639C41.3562 23.9214 43.573 22.7217 44.9244 20.2448M39.7355 26.8532C40.7275 25.3658 41.7446 23.9329 44.6896 20.3949M39.375 33.9606C42.1333 29.9516 43.928 28.1649 45.4249 26.0104M39.7038 33.6608C40.8703 31.7653 42.3941 29.8103 45.0749 26.7223M40.6068 39.5872C40.9555 38.0173 42.0273 35.7904 45.1403 32.1589M40.0586 39.2953C41.068 38.0584 42.085 36.0037 44.4743 32.8858M41.8217 42.4115C42.7526 40.7406 43.9749 40.037 45.2316 38.1876M41.8539 42.2228C42.4623 41.3367 43.1035 40.7074 44.6604 38.359M39.7592 14.6447V14.6447ZM39.5354 21.1173V21.1173Z" stroke="#FF9A00"/>
<path d="M42.3178 20.1371C41.603 20.9677 41.5783 18.9518 40.4591 20.5784M42.3178 20.1371V20.1371ZM41.1544 21.8465C41.865 20.98 41.51 21.0231 41.3342 21.2252M41.5305 19.9366C41.9195 20.5646 41.374 19.7125 41.6219 20.9862M40.7628 18.2016C41.047 19.3761 42.0975 17.5211 42.3127 19.9061M40.8585 19.3171C41.0423 19.3315 39.3443 19.4758 40.1285 17.5236M40.648 19.0888C41.1658 17.4948 41.7774 18.7342 41.7264 17.4986M40.301 17.1617C40.5281 16.1996 41.2567 17.7288 40.7246 16.1354M41.6074 17.7344C41.0286 16.8368 39.3233 14.5688 41.1467 16.6794M40.4406 16.0292C41.7827 16.687 40.3358 14.1973 40.317 14.2365M41.6987 14.5254C39.9424 16.7982 41.8721 14.9274 40.4171 14.725M40.8913 15.0766C40.6111 15.6102 40.8558 13.1819 42.0575 13.3127M42.1069 14.598C42.6307 13.8256 41.802 13.11 42.686 14.6462M42.3505 14.2565C42.0561 15.407 43.7838 14.5072 45.0406 13.5102M42.508 13.9914C43.0615 13.0448 43.901 12.773 44.3462 16.8704M43.8426 15.0766C44.8231 14.9148 45.6328 18.1005 43.3465 17.0347M43.031 14.2874C44.8621 15.4378 45.1112 18.2111 45.2401 16.2339M44.3837 17.1617C43.3165 17.3364 43.4615 17.8612 43.0556 17.1972M45.6039 16.8895C43.917 19.0432 43.5715 16.0896 42.9595 19.028M44.2495 18.3225C44.8581 17.772 44.1348 20.2821 43.7169 20.7723M45.3692 17.3119C42.7258 20.464 43.6518 20.6045 45.1345 17.316M43.8098 19.3171C42.4773 18.5987 42.117 18.9124 43.1009 21.4447M43.0422 17.7091C42.5938 19.0429 42.6477 21.7932 44.3347 20.4345M43.126 19.9585C41.8311 18.6797 42.0109 19.5937 41.5946 20.2106M42.2417 19.5387C43.6901 20.5293 43.042 20.2707 41.6117 19.1794M40.5196 40.3108C39.6251 32.9627 41.4551 28.989 41.0201 20.7123M40.0912 41.1299C40.6434 34.2944 40.9002 29.1952 40.3814 21.9351M40.4814 22.4331C39.9212 22.1946 41.6145 22.34 40.9455 22.6915M39.375 22.9341C41.6427 22.8635 39.1135 22.3154 42.0408 22.2865M40.648 21.7028C41.4197 21.9007 42.2014 22.4472 43.7935 21.9547M40.577 21.9313C41.7765 22.2035 42.5721 22.3155 43.9273 22.009M43.941 22.1052C43.7222 23.3193 42.8763 23.0297 43.4206 23.1708M44.4698 20.672C43.7451 23.2222 45.4851 21.162 44.63 20.4033M43.9915 21.5449C44.7552 29.1632 42.9347 36.1343 44.8219 40.1555M44.4256 22.3305C44.3967 26.8685 44.4496 30.3502 43.6995 40.0778M44.1541 40.4731C44.4017 39.5851 44.4658 41.7699 43.1618 39.1196M43.5841 41.7783C43.6076 41.2376 44.3373 40.5006 44.5326 41.2706M43.9206 41.236C42.8343 40.5302 41.4036 40.8578 40.7792 40.5503M43.8313 40.6446C43.1136 40.6762 42.1174 40.9043 40.8481 40.8091M40.7273 40.848C41.865 40.6705 39.7003 42.1318 39.679 40.4297M41.06 41.4396C40.637 39.5606 41.4602 39.107 39.8437 42.4115M40.6259 40.8272C39.3759 42.363 39.394 39.7298 40.244 39.6191M40.0326 42.1349C40.4262 41.62 41.725 42.4376 40.9909 40.6139M40.541 40.7454C41.6789 41.761 41.6671 41.6989 39.507 39.526M40.0562 39.8363C41.0029 39.9528 39.9848 40.8691 39.9351 41.4018M40.4894 40.619C40.532 41.6398 39.8627 38.904 40.3887 41.0803M40.7307 39.8112C41.8581 39.5376 41.4702 39.0018 39.502 38.9985M40.4814 40.4731V40.4731Z" stroke="#C07400"/>
</g>
</g>
<defs>
<clipPath id="clip0_1919_5645">
<rect width="60" height="60" fill="white"/>
</clipPath>
</defs>
</svg>
