<svg width="60" height="60" viewBox="0 0 60 60" fill="none" xmlns="http://www.w3.org/2000/svg">
<g clip-path="url(#clip0_1919_5715)">
<mask id="mask0_1919_5715" style="mask-type:luminance" maskUnits="userSpaceOnUse" x="-1" y="-1" width="62" height="62">
<path d="M60 0H0V60H60V0Z" fill="white"/>
<path d="M1.74459 7.43638C2.75107 5.83602 3.85213 4.31803 5.38716 2.48594M0.727261 7.66505C2.35926 5.84052 3.45367 4.54441 6.00736 2.25969M0 12.5812C4.81507 10.8464 7.2354 7.19863 9.67174 1.90125M1.46151 12.5764C5.157 8.18873 7.86741 4.34901 10.8525 2.06689M2.35289 17.9175C5.05204 12.6789 9.75155 9.1815 13.9819 3.09521M0.539241 18.8663C7.21006 12.6095 11.9216 5.44353 14.7243 2.60284M1.33599 26.0103C7.54237 14.6488 15.3917 5.33426 21.9885 1.53836M1.08611 23.6733C7.17796 19.4426 10.94 13.8142 21.3596 1.97452M0.949503 28.6551C6.33237 22.1123 13.1109 17.1596 24.2415 1.05627M1.14531 29.2747C11.2192 19.1831 20.3028 7.57698 25.9322 1.52961M1.61405 36.9287C13.2779 21.9482 25.6224 9.92583 28.7701 0.909262M1.00055 36.261C11.6456 22.5416 24.0276 9.4757 30.5649 1.67232M2.09285 40.6376C7.77571 32.3253 17.255 20.4119 34.1925 1.01108M1.49994 40.5921C10.2183 32.2743 18.5195 22.2636 35.4368 2.05896M2.1455 48.6762C15.597 32.4474 28.5808 16.0925 39.0781 0.324676M1.46504 48.1484C8.71806 37.7413 16.9777 27.5042 41.2042 1.56094M2.04399 52.0144C11.5306 37.1243 26.0943 26.6055 43.4424 0M0.654947 52.3071C12.3749 40.252 23.9252 26.3809 44.6492 1.41259M2.6469 59.5512C17.0789 40.6499 32.6736 23.2479 50.5495 2.60608M2.28054 57.8954C15.3418 43.0696 28.9976 28.1442 49.6381 0.930171M5.80784 59.8773C17.8472 46.406 27.331 34.7378 55.5404 2.2418M5.74397 57.9119C23.6812 37.466 41.6317 17.5605 54.9674 1.41137M12.6982 59.6645C30.5594 37.1616 46.1953 15.1284 57.9445 3.78446M11.7521 57.969C26.6785 39.5537 43.2359 21.3379 58.9581 3.37086M16.3588 60C25.9 45.4542 39.396 33.5141 60 9.87271M15.5574 58.9072C32.0336 37.7351 49.3729 18.6073 58.9674 7.93164M19.9418 59.4079C34.7665 43.8292 46.8168 25.4014 56.4265 13.3212M21.772 57.369C35.6479 41.4604 50.016 24.5841 58.5945 14.0134M25.943 58.0895C37.744 42.6595 48.9134 30.7065 58.3484 18.45M26.6815 58.5991C38.6055 43.4663 50.5718 28.0478 58.5816 20.6007M32.6666 57.2811C38.1615 47.3058 48.3747 37.3175 57.8822 26.6375M31.1867 58.6415C41.6975 45.9304 50.3224 34.6152 57.5717 26.162M36.0612 57.7576C45.6333 47.2256 52.4701 37.8548 57.3669 31.7173M36.5613 57.6977C44.6965 47.9944 53.8324 37.8708 57.3204 31.505M39.6068 59.2548C47.4349 51.0706 49.9764 47.2759 58.4931 39.0371M40.685 58.8231C46.7134 50.9363 53.5659 41.8184 58.2878 37.6983M46.1957 59.6736C49.5036 54.2963 52.2271 48.6099 59.6229 41.7477M45.6441 57.7676C50.3765 53.3596 53.7557 49.7952 58.6373 44.3302M49.7835 58.0048C53.646 54.5308 55.9977 50.4527 59.7438 48.1513M49.9952 59.258C52.7706 55.2289 54.4763 53.1104 58.7492 48.5983M55.4863 57.8746C56.255 57.0282 57.2722 55.9843 58.0364 55.1312M55.3716 58.3426C56.4691 57.0911 57.2673 55.8021 58.1046 54.5969M1.25784 1.59144V1.59144Z" stroke="white"/>
<path d="M2.06284 1.26908C11.4925 -0.0732438 25.4208 1.88611 58.2312 1.92421M1.38743 0.159262C19.212 -0.381639 37.3079 0.585889 58.5092 1.11515M58.5394 0.111549C59.6372 16.9003 57.5373 31.2356 58.1567 57.7312M58.811 0.593061C58.9165 14.2777 57.5594 27.2699 58.4715 58.3288M60 60C43.3319 58.5666 31.9432 59.3499 1.59589 58.4312M58.2253 59.1924C36.0082 58.2192 14.8761 59.227 0.186505 59.613M0.892684 59.956C-0.735718 39.282 -0.126287 20.4243 2.63915 0.311756M0.0395914 58.1013C0.554487 42.3421 1.91738 27.7725 0.478743 0.20804M0.799846 0.68348V0.68348Z" stroke="white"/>
</mask>
<g mask="url(#mask0_1919_5715)">
<path d="M60 0H0V60H60V0Z" fill="#FFCA28"/>
<path d="M2.23798 7.74431C2.45853 6.22896 4.32859 5.44093 6.19826 2.40467M1.61041 8.3244C3.24449 6.18644 4.10057 4.87593 6.24808 2.50062M3.31227 13.2488C5.14537 8.97102 8.80148 5.88015 12.7621 2.55061M1.53724 12.9189C5.6388 9.83251 9.54082 5.27986 11.4065 1.65131M3.64968 17.8558C5.14479 13.6126 8.85976 10.6742 16.0193 3.61231M1.10468 19.676C5.50781 14.3286 10.0298 8.359 15.9966 2.04547M3.27161 24.1237C6.16521 18.0959 12.8974 12.4499 20.365 1.72037M1.5352 23.6537C8.74227 17.2801 15.1922 8.95933 20.5146 1.13173M3.22043 30.0649C6.52747 24.366 13.8075 17.1792 26.1515 3.81864M1.7617 31.3855C7.56102 25.2463 11.7766 19.1937 26.318 1.48462M0 37.3474C10.2821 29.64 17.1049 17.4874 32.6682 0.471898M0.836927 37.4531C10.8165 25.3122 21.3008 14.2316 30.465 1.92662M1.0865 40.9569C15.961 27.3054 27.2235 12.4388 34.9469 1.97853M1.8367 41.503C13.0065 28.0869 25.7103 13.6417 34.66 2.33669M0.335586 46.6035C9.90531 35.4068 22.5509 24.9736 40.0298 0M1.70905 47.5438C14.5965 32.6808 27.927 16.416 41.5459 1.23639M2.19949 51.7226C12.533 37.5828 24.9845 26.7414 43.5047 3.71516M2.79072 52.4423C13.0167 42.2106 21.8347 30.0547 44.8263 2.4225M2.59564 57.4151C17.2117 42.3865 30.8126 28.4586 49.9553 0.202772M3.09594 58.951C20.677 36.7859 39.562 13.7895 50.8551 1.65617M5.72935 57.5436C22.4136 42.781 34.4213 26.5173 54.7515 1.67968M7.5875 59.3779C23.6381 39.8593 40.25 19.8505 55.6227 3.06263M10.4877 59.7821C25.3544 44.0285 39.3086 27.2615 59.6388 5.48126M12.5029 58.0445C22.3495 44.8679 33.3757 32.0043 58.1325 3.37633M15.0846 58.123C30.1646 42.1828 41.0405 27.6927 57.1301 10.0923M16.2619 58.0099C32.2715 38.5831 48.4 20.7188 58.4083 8.30009M22.6768 60C35.6223 45.2425 47.1887 28.13 56.8674 16.4987M21.8573 59.2505C34.7867 44.7772 47.3997 29.2967 58.3001 14.8253M25.2405 57.7508C36.919 44.6089 49.1609 29.6063 59.0752 19.1703M26.2463 58.5604C37.2213 44.366 50.5303 31.3313 58.7758 20.12M30.0806 56.9988C43.6376 46.3916 50.9501 33.7262 59.7277 26.9508M32.0151 58.3229C37.7941 50.0502 45.5911 43.5443 58.0936 25.9877M37.4146 57.373C43.1566 50.3075 51.2771 43.1722 58.2082 33.2983M36.9261 59.0743C43.456 49.5465 52.2209 38.8718 58.7029 33.4594M42.4506 57.4329C44.9357 52.3951 50.5578 49.0078 58.9416 36.1334M41.2314 59.161C46.264 53.0543 51.9972 46.0217 58.3721 37.6665M45.9145 58.1168C50.2235 55.9658 52.9872 50.9412 59.5299 42.1344M45.2888 58.7454C49.3289 54.767 52.3443 51.6289 58.6967 44.2638M51.549 58.719C52.4379 56.0284 57.7206 52.1601 60 49.1257M49.9112 58.98C52.7693 57.028 54.4488 54.161 58.5661 48.9251M55.1794 58.5415C56.1093 57.753 57.5537 56.4671 58.5193 54.6701M55.7227 58.6924C56.3121 57.6245 57.1355 56.787 58.5871 55.3341M1.95523 1.97206V1.97206Z" stroke="#FFCA28"/>
<path d="M0.706428 2.42413C12.5394 1.82324 25.1328 3.63542 58.8942 3.39782M2.4256 1.54933C21.72 2.50065 41.1036 1.78319 59.7675 1.94731M57.8669 0.712562C56.8342 15.898 60.1257 27.931 57.2645 58.4684M59.99 2.05891C59.8561 23.6136 58.4295 43.4087 58.77 58.8081M60 57.783C43.3918 59.5669 26.8108 57.7721 0.576532 58.1823M59.2907 59.7621C44.9233 58.6451 29.9927 58.5268 1.492 60M0 57.2326C2.39586 37.2417 2.12219 20.5334 0.229679 0M1.0102 59.8208C0.955504 42.9024 0.49424 26.469 2.23903 1.71698M1.77174 1.85396V1.85396Z" stroke="#372A00"/>
<path d="M36.4286 49.9017L40.8462 46.9786C41.1923 48.0663 43.3846 50.6494 46.1538 50.6494C48.9231 50.6494 50.2088 49.1369 50.2088 48.1343C50.2088 45.4017 47.3811 44.4383 46.0229 43.9755C45.8015 43.9001 45.6192 43.838 45.4945 43.7836C45.4306 43.7558 45.3339 43.7188 45.2097 43.6714C43.6992 43.0943 38.1264 40.9652 38.1264 34.7935C38.1264 27.9956 44.6868 27.2139 46.1703 27.2139C47.1409 27.2139 51.8077 27.3328 54.1319 31.7005L49.8462 34.6915C48.9066 32.7881 47.3455 32.1593 46.3846 32.1593C44.011 32.1593 43.5165 33.8995 43.5165 34.6915C43.5165 36.9141 46.0954 37.9103 48.2729 38.7515C48.8426 38.9715 49.3848 39.181 49.8462 39.399C52.2198 40.5207 55.7143 42.3561 55.7143 48.1343C55.7143 51.0284 53.2868 55.7139 47.1758 55.7139C38.967 55.7139 36.7912 50.7854 36.4286 49.9017Z" fill="#3E3E3E"/>
<path d="M38.5264 34.1725C39.7625 33.5562 40.2841 31.4848 43.2473 28.8905M38.1622 34.256C39.6527 32.0085 41.6432 30.1073 42.7957 28.8571M40.9987 37.7999C41.2802 36.8592 42.9703 35.6785 44.3279 34.0766M40.8133 38.2711C41.7243 36.7785 42.511 35.7306 44.2541 33.7113M46.3551 30.7868C47.6835 29.0349 48.3973 28.0369 49.6618 27.2829M46.6464 30.6954C47.2754 29.6681 47.9722 29.0161 49.1714 27.2139M36.4286 50.3613C37.6183 48.2177 38.0467 47.0739 40.1044 45.3849M36.6844 49.8664C37.8406 48.1289 39.2118 46.7474 40.0025 45.842M42.4116 42.4978C44.7536 40.3815 46.0246 39.0261 47.125 36.0308M42.2284 42.7525C43.7727 40.5074 45.6941 38.9271 46.9078 36.7248M39.3717 53.3201C39.8577 52.5041 41.3535 49.8842 42.2988 48.1826M39.1603 53.607C40.7277 52.071 41.7589 50.0391 43.035 48.6979M46.4184 44.8086C47.4541 42.5586 49.7154 41.1421 50.483 39.7346M46.3038 44.3457C46.9806 43.7364 47.7637 42.3614 49.9668 39.9407M42.7327 55.7139C43.1968 55.1281 44.4203 54.0639 45.7955 51.7596M42.3816 55.4193C43.8943 54.3446 44.8213 52.888 45.756 51.5284M49.8012 46.4913C50.5652 45.3548 51.0088 44.5591 52.6976 42.1448M49.58 46.8608C51.0089 45.3336 52.0297 44.2032 53.1194 42.4017M48.4791 55.4187C50.1386 54.4076 51.8378 51.9987 55.7143 48.0006M47.9915 55.7059C50.3866 53.0152 52.3054 50.1435 55.1704 46.6943M38.0212 28.1739V28.1739Z" stroke="#3E3E3E"/>
<path d="M38.7407 48.6771C39.5071 47.9919 41.5244 46.9506 42.2434 46.4321M38.1033 48.8613C39.3733 48.0746 40.752 47.237 42.4301 46.4337M42.2159 46.3704C43.2421 47.0298 43.2555 48.071 48.5234 49.9214M41.2543 45.4189C42 45.7432 42.6391 50.2717 45.8988 48.5549M46.9376 49.6193C49.9663 49.8484 51.1607 48.2592 51.3317 47.3334M46.5531 49.418C48.688 50.9424 50.8151 46.9884 50.4121 45.9565M50.5451 47.3933C51.5982 45.3925 48.2331 43.3315 45.4586 42.9078M49.4737 46.2186C52.3346 43.3446 46.4847 43.1495 48.2763 42.3571M46.8212 43.7125C45.998 43.7989 45.4998 43.1509 46.5556 42.4742M48.197 42.7899C46.2323 41.84 46.3192 41.9279 45.3947 43.6556M46.3511 43.5426C44.8055 44.5301 47.0237 42.916 47.3571 44.6075M44.738 43.1306C44.8684 42.4008 46.6031 44.3138 47.1188 45.3513M46.0977 43.4433C43.8829 42.5124 41.4174 40.3654 38.3182 36.3018M45.6402 44.0925C45.5441 43.0534 39.7719 41.7264 37.8925 37.1767M39.7963 35.5858C38.9205 28.3004 47.2568 29.7297 47.4182 27.2711M40.4949 36.0007C39.8698 29.4539 47.2439 29.6979 48.4123 29.3372M46.9523 28.8773C47.7827 30.1513 51.9637 27.9601 54.5232 34.0095M46.4206 27.2139C48.216 29.8809 51.7994 30.2722 53.4848 31.092M54.4116 32.7988C52.7628 33.4491 51.7816 35.0546 49.8077 35.3308M54.196 32.7678C53.0391 33.4042 52.472 34.165 50.3318 35.6357M50.2225 35.4955C51.0092 33.2394 46.8215 33.7807 46.8427 32.4078M49.1206 33.9102C48.1892 32.6324 47.8255 34.5226 48.0119 33.1723M47.143 33.2543C45.3489 33.7589 43.7903 36.1187 45.8299 34.9477M48.2023 33.6438C44.9709 32.7889 42.8227 35.4445 45.416 34.3874M44.5914 35.4955C44.7886 38.912 46.4603 37.7269 47.8775 39.1302M45.7163 35.0491C42.941 38.2486 47.3173 37.0805 47.3341 38.3275M48.8228 39.0889C50.6183 39.2036 51.171 39.2383 48.4956 38.9035M47.6064 37.749C50.5032 38.0234 49.1456 39.1038 49.2655 41.0757M50.2225 39.6619C53.8122 39.7832 56.456 43.2358 55.5268 47.0776M50.8101 41.2297C52.8957 38.6856 56.5588 41.2096 54.7795 47.0643M55.4429 47.3933C54.0657 51.0881 54.1222 55.1482 48.9607 52.9754M54.4703 45.7232C55.842 50.8482 54.358 55.6371 47.7643 55.4963M47.8468 54.1018C41.4439 53.1549 39.0423 51.1171 38.8756 50.1699M46.3835 55.7128C38.7329 55.8155 40.3205 48.9693 36.4286 48.4153M38.2859 48.9576V48.9576Z" stroke="#372A00"/>
<path d="M15 50.4822L19.6043 47.5606C19.9651 48.6477 21.367 50.652 23.4011 50.652C25.4353 50.652 26.4764 48.5627 26.4764 47.5606V27.8567H32.139V47.5606C32.2306 50.2783 30.7233 55.7139 24.0712 55.7139C17.955 55.7139 15.4123 52.0789 15 50.4822Z" fill="#3E3E3E"/>
<path d="M23.5656 34.4341C24.5539 32.3635 26.8291 30.6714 28.1477 28.4243M23.5575 33.5547C24.9761 32.135 26.1568 30.939 28.4711 28.4874M15 50.5232C15.7105 50.1128 16.5491 49.5415 18.0158 47.3087M15.3124 50.6049C16.03 49.4951 16.8946 48.5718 18.0398 47.2845M22.8292 41.027C26.6002 37.9585 28.2894 34.3703 31.6079 30.8735M23.2808 39.4491C26.2046 35.8353 28.9366 32.1893 30.7017 30.7016M17.047 53.4393C18.7971 52.944 19.1261 51.246 20.2219 49.1646M17.3335 53.7343C18.7138 52.0269 19.8517 50.8263 20.5589 49.5619M23.0601 47.247C26.6078 41.3345 28.5742 39.6385 32.1429 35.7384M23.5372 45.8633C26.4098 42.2953 29.6551 38.3757 31.7006 35.7225M20.6376 53.7847C23.0129 51.1615 24.7148 50.4006 30.0744 43.7347M21.1566 55.7139C23.3578 52.3302 24.9753 50.1669 31.0119 42.2735M24.1136 27.8567V27.8567Z" stroke="#3E3E3E"/>
<path d="M15.8243 49.0665C17.1826 48.0423 19.2837 47.4203 19.7502 46.8169M15.7915 49.6611C17.037 48.997 17.9601 48.5115 20.0064 46.8271M20.2401 46.7347C19.7574 45.9068 21.9768 51.4304 23.8739 51.3857M19.7903 47.71C19.7659 45.8648 21.5978 47.8151 24.1517 50.9556M23.755 49.6109C26.9555 50.9903 25.0918 48.3812 26.147 46.5773M22.0633 50.2002C24.6654 48.7657 26.9 48.6754 28.6765 47.317M27.4455 47.7431C27.9016 41.2934 26.8139 36.6883 25.8462 28.3259M25.9605 47.1002C26.0679 39.8215 26.5824 33.1092 27.0499 27.8567M27.0428 28.4602C28.1341 28.3805 28.386 28.7951 31.7246 28.7836M26.7609 28.1492C27.8293 28.456 28.9417 28.3472 31.7022 28.3702M30.5441 28.9075C32.3509 31.4189 31.9397 36.6034 30.2235 47.6569M31.1726 28.7317C32.3294 35.2943 32.4236 41.462 31.3286 45.9147M31.8441 46.7347C33.2307 49.6697 29.6706 54.6033 23.6576 55.7139M30.0688 47.8134C31.4314 49.1974 29.014 52.3947 23.9024 54.1379M24.3753 54.3204C19.8089 53.2641 16.8956 51.6212 15 51.0928M24.9923 52.6832C18.7136 52.4481 14.4763 50.0339 15.8797 51.3837M15.9777 49.4529V49.4529Z" stroke="#372A00"/>
</g>
</g>
<defs>
<clipPath id="clip0_1919_5715">
<rect width="60" height="60" fill="white"/>
</clipPath>
</defs>
</svg>
