<svg width="60" height="60" viewBox="0 0 60 60" fill="none" xmlns="http://www.w3.org/2000/svg">
<g clip-path="url(#clip0_1919_5619)">
<mask id="mask0_1919_5619" style="mask-type:luminance" maskUnits="userSpaceOnUse" x="-1" y="-1" width="62" height="62">
<path d="M60 0H0V60H60V0Z" fill="white"/>
<path d="M1.41204 7.07995C2.86251 7.11868 3.40291 5.06876 5.92209 2.79165M1.3607 7.96499C3.05613 5.63189 5.25331 3.61775 6.25199 2.40966M2.73389 14.4906C5.74562 8.10137 9.55689 4.45884 12.5104 2.70558M1.7055 12.6652C4.28445 9.53374 6.62035 6.15869 11.0895 1.07188M3.35714 20.5711C6.51345 14.0807 11.4988 8.29695 15.2056 1.14153M1.04639 18.6943C6.51576 13.0088 12.3071 7.353 15.4035 2.68689M1.28345 23.8969C7.6107 17.0028 15.7563 5.42794 21.5533 0M2.55245 24.8179C7.80765 18.9234 11.0719 12.1427 21.1348 2.1401M0 30.2811C6.99953 24.3739 12.9482 15.1627 27.3242 1.51456M2.29426 30.0605C9.95998 20.1087 17.7343 11.9169 26.7207 1.70847M1.85613 36.8675C6.44219 29.2269 12.1985 22.733 30.5159 2.9699M2.19603 37.1604C8.71508 28.3378 16.3768 18.9862 30.756 1.93896M3.39295 43.7134C13.1334 26.0179 24.7199 13.1379 37.1281 2.6201M1.37584 41.2345C12.1042 29.9737 24.0175 15.6586 35.2973 1.3175M2.21675 46.5391C14.5681 31.6337 26.8768 16.7163 42.4165 2.84637M1.83067 48.6493C12.0671 35.8332 23.7679 23.3246 39.9958 0.693841M3.58719 53.4221C19.9823 33.3074 32.9989 14.2736 44.7227 2.59562M2.89499 53.0405C17.8365 35.2775 32.6447 18.5769 44.9052 1.84201M1.76179 59.2027C13.8512 48.2359 21.7304 33.8967 51.9185 0.249098M2.21579 58.0464C18.0491 38.8782 35.0509 19.9388 50.6703 1.3151M6.25461 60C17.9329 46.138 30.4403 28.2176 53.3493 1.76139M6.55177 59.5164C17.3618 47.1699 26.4956 34.2353 55.6142 1.6793M13.8955 57.9073C32.1093 38.0828 46.9995 16.1237 59.3691 3.016M13.006 58.8298C22.786 45.6276 35.1426 32.6078 59.2116 4.18041M14.9907 57.8331C29.4791 45.1365 43.0703 26.7277 59.89 8.47258M17.5005 59.7302C25.5491 48.4644 34.083 37.2531 59.2277 8.82866M21.0547 56.8016C31.9476 48.6608 41.2796 36.5445 59.4503 16.0389M21.7519 58.6391C29.271 48.2747 38.1473 38.3045 57.7437 14.8167M26.2568 57.2037C38.1261 45.2606 47.5525 35.7769 57.4046 21.7317M26.5058 58.8708C36.1087 48.3538 44.3341 38.3768 59.4196 20.8317M30.4659 57.6284C39.4875 48.6296 48.2004 38.2454 60 25.8174M32.3004 57.9776C41.4742 48.0357 50.6251 36.5919 58.5223 26.2297M35.6619 58.2101C42.5574 51.8415 46.7276 49.0178 59.6841 30.9621M35.53 59.3439C42.5045 49.7667 49.7239 41.6114 58.3865 33.3533M40.3623 57.0795C45.7465 52.9095 52.2165 44.4665 57.6915 36.5575M41.5174 57.9195C45.3174 53.7459 48.3649 49.6209 58.507 38.5093M46.7261 56.9314C49.7369 52.9568 53.0632 52.3489 59.8292 44.8424M46.1804 58.0223C49.1291 55.5395 53.7237 51.0675 59.2361 43.1678M51.4366 58.1934C53.6297 54.4741 57.7669 51.9922 59.9742 48.1465M50.0748 59.2238C53.3644 55.0223 56.3099 52.4023 58.8343 49.4M55.3878 58.6235C56.2069 58.1296 57.4881 56.5799 58.7957 55.4415M55.8844 58.599C56.7928 57.7812 57.561 56.5974 58.7195 55.0512M1.73594 1.72885V1.72885Z" stroke="white"/>
<path d="M3.1034 2.5338C19.9311 0.678196 35.6936 1.53674 58.7284 0.0254364M1.21084 0C12.981 1.48692 25.983 1.64707 58.1903 1.5354M58.4429 2.58471C59.0756 23.0298 60.5621 46.6707 59.6695 58.9279M59.3365 1.58855C58.2017 18.239 58.516 36.6959 59.7287 60M60 58.8848C45.6382 59.1645 31.8415 59.1365 2.20114 57.6227M58.6133 59.9832C41.6444 59.1001 24.8188 58.6976 1.3426 58.2779M0 57.6687C2.10358 35.267 3.16121 11.4868 1.47746 2.30265M1.67472 59.0415C1.02934 45.6372 0.707588 31.3046 0.304187 0.211164M1.19451 0.869787V0.869787Z" stroke="white"/>
</mask>
<g mask="url(#mask0_1919_5619)">
<path d="M10.625 4.83612e-06H49.375C50.7707 -0.00134432 52.1529 0.279605 53.4426 0.826775C54.7322 1.37394 55.9041 2.17659 56.8909 3.18878C57.8778 4.20097 58.6604 5.40283 59.1939 6.72558C59.7274 8.04832 60.0013 9.46599 60 10.8974V49.1026C60.0013 50.534 59.7274 51.9517 59.1939 53.2744C58.6604 54.5972 57.8778 55.799 56.8909 56.8112C55.9041 57.8234 54.7322 58.6261 53.4426 59.1732C52.1529 59.7204 50.7707 60.0013 49.375 60H10.625C9.22934 60.0013 7.84712 59.7204 6.55744 59.1732C5.26776 58.6261 4.09595 57.8234 3.10906 56.8112C2.12218 55.799 1.3396 54.5972 0.806106 53.2744C0.272615 51.9517 -0.00131071 50.534 4.7152e-06 49.1026V10.8974C-0.00131071 9.46599 0.272615 8.04832 0.806106 6.72558C1.3396 5.40283 2.12218 4.20097 3.10906 3.18878C4.09595 2.17659 5.26776 1.37394 6.55744 0.826775C7.84712 0.279605 9.22934 -0.00134432 10.625 4.83612e-06Z" fill="#001E36"/>
<path d="M2.41285 11.0741C2.98262 10.8013 5.19541 7.05503 10.1902 1.03345M1.81562 11.7152C4.3415 7.98949 8.11119 5.2732 11.4493 1.36473M0.61029 16.8275C5.11845 14.0896 12.3334 7.12956 17.5022 0M1.4609 18.2178C4.18509 13.4668 7.75731 9.55438 16.8977 0.930024M0.132521 24.2674C8.17739 16.7461 9.36495 14.7703 23.5541 0.484423M2.40741 23.8124C6.24021 19.1369 9.7282 13.0826 21.1244 0.156236M1.57737 29.2418C9.25126 22.6812 15.6554 14.5898 24.7041 1.66934M2.02261 29.518C8.04388 22.295 14.8299 15.9563 26.0194 2.06879M0.27614 35.2216C10.1927 25.6335 18.8472 18.9474 33.1651 0.547287M0.700482 36.291C9.58413 27.0868 16.6954 18.002 32.7285 0.427953M0.34083 40.173C8.9685 30.9664 16.7072 22.6076 37.1263 0.582861M2.75113 40.9683C13.3075 26.2675 25.2587 13.3951 36.9475 1.06664M2.20893 47.5719C12.7916 35.1988 23.6106 23.1776 42.0747 2.45466M0 46.888C10.706 35.6321 21.2868 22.9299 41.6108 0.415274M2.12324 51.924C17.2753 34.8019 30.557 20.104 47.0752 2.41688M2.91893 51.3828C15.9161 35.8958 29.6907 22.0231 47.2723 0.587503M2.94694 53.7332C18.8086 40.9734 31.093 23.5184 52.4599 4.53541M3.67145 55.91C16.4206 41.9278 26.3471 29.4854 51.5855 3.77963M9.69908 57.0519C22.1476 43.4063 36.8866 27.3976 53.4685 2.57195M7.63241 56.5425C21.0026 41.2078 34.9374 24.6898 55.4767 4.1429M12.2771 58.0643C23.5789 46.175 34.0658 33.9339 58.0094 7.05448M11.3278 59.1965C29.0194 39.4959 46.1954 20.9444 58.9568 5.55539M16.9153 58.9322C34.9333 38.4617 50.9611 21.8004 59.1261 9.43087M16.11 58.7761C31.1217 43.0689 45.7484 25.9584 59.2519 10.7178M20.9076 56.8568C35.4812 40.7548 50.5743 28.0559 57.9106 14.8584M22.5925 57.8241C33.0119 46.1934 41.976 35.0677 59.5524 15.9043M29.0314 59.9232C35.4778 47.3645 45.3142 37.2204 57.7035 22.5403M27.8832 58.598C37.8535 47.8167 46.9192 35.0086 59.1165 21.722M34.0092 60C38.1926 49.7412 44.7734 44.3341 60 28.6724M32.7295 58.5037C42.1264 47.8211 51.8284 36.8681 58.8735 27.9057M37.0597 59.283C43.1039 53.1727 45.3101 47.0215 59.7197 34.6671M37.4148 59.3656C45.882 50.5492 52.7706 41.6402 59.2453 34.5859M41.5627 57.7103C49.1359 51.3467 52.7668 49.6751 57.5984 41.2522M43.5733 57.9485C49.3657 53.0842 54.184 45.2141 58.9866 40.5524M46.5866 58.2138C50.8131 52.9977 57.9623 48.9476 58.4459 46.9909M48.6678 59.1331C52.3475 54.228 55.5319 50.4899 59.7662 46.1742M3.95829 3.41601V3.41601Z" stroke="#001E36"/>
<path d="M10.785 2.74113C22.6128 0.274056 31.0883 0.386323 50.2354 2.39347M11.3223 0.461157C19.8368 0.454481 28.9829 0.994665 47.9893 0.630371M48.6175 1.12343C51.179 2.97907 51.8653 1.69274 53.8156 2.92392M48.386 1.36841C50.8935 1.69759 53.2764 0.270003 52.3119 1.8841M52.5235 1.90662C53.2867 3.04575 56.6776 4.11586 55.6806 3.82248M53.3652 2.39593C55.9585 2.41288 52.9503 1.09097 56.2598 5.4972M55.8348 4.14413C58.1712 3.80162 56.1127 4.77683 58.9665 7.88399M54.1037 2.34157C55.9537 5.55431 59.6349 4.17411 59.3735 8.91647M58.0462 7.49451C58.0564 10.3175 57.5777 8.33539 58.5857 10.4421M57.6649 6.15291C56.9287 10.7688 56.8012 10.5279 60 10.5451M59.9706 11.9801C58.3136 20.4024 60.1254 32.1469 59.1727 48.5247M59.1518 10.9899C60.0343 23.3059 59.5726 34.7649 59.0051 48.0885M58.8203 47.6379C59.7018 47.9203 57.9494 51.7426 58.7626 53.3718M59.5451 47.9228C58.3761 49.2691 56.819 52.0472 56.498 53.3336M58.0462 51.5898C58.3956 54.5216 57.4407 55.553 55.1655 55.592M59.9122 51.2215C56.9841 52.751 57.9567 53.426 54.0583 54.5065M55.8348 54.9402C55.5263 54.6402 55.1354 57.4926 53.3279 57.4997M55.2238 55.0567C54.5194 54.4318 53.2632 55.8948 51.8544 58.8154M52.5235 57.1777C50.4891 58.963 51.692 57.6464 46.7974 56.5433M51.1125 57.8092C49.6046 58.8662 49.0688 58.0369 48.7341 60M47.0388 56.1859C35.2791 56.8708 25.3634 58.4117 12.1541 58.9624M48.5906 58.232C39.3799 57.6686 29.8975 58.1845 11.787 58.0748M11.4075 57.9609C11.8115 59.6061 7.15824 58.988 6.66856 57.6267M10.5654 56.1955C10.243 58.4329 10.1922 56.094 6.73642 59.2562M7.50159 57.1777C5.81601 55.4014 5.35767 57.1914 6.05584 54.9867M9.33052 55.4765C5.5116 56.0097 6.47753 53.8887 5.76321 52.8057M4.19025 54.9402C4.27545 54.459 2.38446 50.971 1.98811 53.0997M3.48506 55.6163C5.25737 55.8472 2.98987 50.6863 2.56082 51.9922M1.97881 51.5898C-0.347906 49.5671 -0.672937 48.5283 2.41654 46.4397M0.205625 52.7532C3.3302 51.1194 1.63505 47.1209 0 46.0176M2.2587 46.5979C1.1053 34.7555 1.54316 22.3195 0.744169 12.9639M0.340476 46.727C0.90644 34.3572 0.405924 21.2 0.684706 10.7007M1.20475 11.4464C0.666537 10.111 1.69691 9.64825 1.7513 7.39241M2.00043 9.95152C0.0611138 10.2498 1.76307 9.64111 1.63778 6.79545M1.97881 7.49451C3.00358 5.55263 1.68716 3.85703 5.34474 2.74406M2.80427 6.15208C3.21572 5.99313 1.35653 2.97464 2.28606 3.50605M4.19025 4.14413C5.53899 4.52501 7.38986 2.77365 6.35338 0.813004M6.0449 4.9124C4.60858 1.26482 4.57411 4.43564 6.44761 0.955193M7.50159 1.90662C8.48428 1.92846 10.5694 -0.749765 10.9846 2.24592M9.36857 2.71276C10.2873 0.67171 11.9588 0.67365 11.6248 0M11.4075 1.12343V1.12343Z" stroke="black"/>
<path d="M13.5 42.0774V15.6927C13.5 15.5132 13.575 15.4107 13.75 15.4107C14.175 15.4107 14.575 15.4107 15.15 15.385C15.725 15.3594 16.375 15.3594 17.05 15.3338C17.725 15.3081 18.45 15.3081 19.225 15.2825C20 15.2568 20.75 15.2568 21.5 15.2568C23.55 15.2568 25.25 15.5132 26.65 16.0517C27.905 16.4888 29.0494 17.2071 30 18.1543C30.8056 18.9832 31.428 19.9801 31.825 21.0773C32.2034 22.1459 32.398 23.2738 32.4 24.4107C32.4 26.6158 31.9 28.4363 30.9 29.8722C29.8954 31.3062 28.4927 32.3963 26.875 33.0004C25.175 33.6415 23.3 33.8722 21.25 33.8722C20.65 33.8722 20.25 33.8722 20 33.8466C19.75 33.8209 19.4 33.8209 18.925 33.8209V42.0517C18.9306 42.0939 18.9278 42.1368 18.9169 42.1779C18.9061 42.219 18.8872 42.2574 18.8616 42.2909C18.8359 42.3244 18.804 42.3522 18.7676 42.3728C18.7313 42.3934 18.6913 42.4063 18.65 42.4107H13.8C13.6 42.4107 13.5 42.3081 13.5 42.0774ZM18.95 20.3594V28.9748C19.3 29.0004 19.625 29.0261 19.925 29.0261H21.25C22.226 29.0273 23.1961 28.8715 24.125 28.5645C24.922 28.3241 25.634 27.8521 26.175 27.2056C26.7 26.5645 26.95 25.6927 26.95 24.5645C26.9735 23.7633 26.7741 22.9717 26.375 22.2825C25.9582 21.6167 25.3451 21.1047 24.625 20.8209C23.6865 20.4439 22.6822 20.2694 21.675 20.3081C21.025 20.3081 20.45 20.3081 19.975 20.3338C19.6333 20.3108 19.2902 20.3194 18.95 20.3594Z" fill="#31A8FF"/>
<path d="M13.5 21.4314C14.6322 19.3549 16.2823 18.8198 18.0078 15.2568M14.3926 21.4046C15.5331 20.4661 15.9677 18.5524 18.739 15.7661M14.4922 27.2411C15.7926 24.701 17.5126 23.4036 19.574 20.7735M13.8414 27.2562C16.1811 25.1128 17.8326 22.8709 19.2283 19.9679M19.3092 20.0007C20.4295 18.8385 22.0301 17.4342 22.6561 15.7998M19.5865 20.4475C20.8242 18.9388 21.8478 16.9466 22.7871 15.8333M14.4707 33.4947C16.103 31.0088 18.3773 27.5398 19.1386 26.1282M14.3142 32.5346C15.2441 31.3916 16.6684 29.5129 19.1442 26.7361M23.2453 20.8525C24.1464 20.3291 25.406 18.355 26.603 17.3344M23.205 21.2515C24.6718 19.8508 25.8654 18.2246 26.9564 16.8915M14.2145 39.2441C15.7503 37.9323 16.7662 35.6568 19.0322 33.0201M14.4138 38.9111C15.8033 37.283 16.7472 35.3469 18.8654 32.9155M19.2422 32.8584C19.552 31.6544 19.9928 31.2077 21.0208 30.4958M19.2127 32.6086C19.6718 31.8854 20.2086 31.0713 20.8279 30.288M26.3839 22.842C27.2827 22.4731 27.9621 20.8143 29.2689 19.5458M26.5501 23.2173C27.2482 22.1927 28.4129 20.8997 29.4272 19.587M15.7925 42.0645C17.3442 41.5928 17.668 39.8405 18.9554 38.4413M16.1686 42.4107C16.7382 41.448 17.3748 41.0512 19.005 38.7863M22.985 31.1296C25.3886 30.5953 26.3348 27.7373 32.4 21.2967M23.5058 32.5788C26.9754 28.6382 29.7694 25.585 31.3774 21.4634M14.3909 15.3439V15.3439Z" stroke="#31A8FF"/>
<path d="M15.4101 39.7065C15.4859 33.5497 13.3376 27.9438 14.1398 18.105M14.4106 39.6852C14.2097 34.2315 14.032 27.5028 14.479 17.787M14.6609 17.037C16.079 17.8581 13.836 16.5795 13.5 16.8518M16.2597 16.3615C15.1449 17.0653 12.9513 17.1468 15.732 16.7086M14.8851 16.7884C15.555 15.9208 14.7523 18.271 16.6021 17.8593M14.4498 17.8864C13.4985 18.5364 14.9965 15.0063 14.3934 15.7076M16.1406 16.7657C15.0321 18.0988 16.3678 15.6861 19.5389 16.3059M17.0668 17.6013C15.1512 16.3689 18.8323 16.3539 19.301 15.7132M17.8444 16.7206C17.7709 16.8808 17.8053 18.2301 20.2762 17.0107M18.1354 16.8723C18.0942 15.3313 17.2381 15.5908 20.3784 18.6693M19.7949 16.6754C21.9858 15.3865 22.8051 18.3231 21.1335 15.2568M19.1463 15.5331C22.2682 16.0681 19.3922 18.3056 22.2093 15.5787M21.835 16.6527C22.9654 15.4817 26.8851 15.7589 26.7528 15.7081M20.3183 16.1777C25.466 17.2785 26.1526 17.9794 26.0015 15.4432M26.4533 17.3536C28.5162 19.2169 28.0123 19.2823 29.7951 17.5621M24.9936 18.6943C26.9842 18.3691 28.136 17.085 27.7921 19.3953M29.4575 19.2075C30.9023 19.8977 31.8265 20.6787 30.0376 21.226M29.3618 18.5237C30.983 19.1474 28.7305 21.1447 31.9441 22.4838M31.0941 21.7849C30.9991 21.5736 30.1166 23.7121 30.0341 24.0427M31.5536 20.0642C33.4056 22.1848 31.6172 24.6187 31.7765 26.5285M31.6097 24.724C30.4839 27.0917 30.8044 26.582 29.7757 30.8602M31.5583 24.4046C33.2414 27.6273 30.9279 30.0275 31.1521 30.8402M30.2646 29.5396C30.6823 32.0707 26.4519 31.8429 25.9846 30.6418M28.4775 30.8184C30.1665 32.1581 28.2234 33.3304 26.7833 34.1884M26.6551 32.2979C25.6931 31.5821 22.5398 31.366 23.0084 31.9512M27.4984 33.5176C27.0965 33.3901 23.6699 34.5933 20.9313 32.1327M21.6108 33.0666C21.2884 33.8311 21.2672 34.4104 20.3325 32.9831M21.5945 32.5091C22.2233 31.679 20.2236 31.3779 22.5245 34.3829M20.4899 33.044C21.3407 32.327 20.4516 32.0177 18.2312 32.3266M19.6814 33.6953C19.9716 31.2038 20.2255 34.8239 20.0452 33.1456M19.1546 32.9443C19.4449 35.1067 19.0583 36.5982 19.9832 40.9518M19.7042 33.1659C19.6827 34.9238 19.3272 37.0358 19.3351 39.9523M19.5259 40.2788C19.3416 40.1578 18.146 41.8769 18.583 40.9963M20.0154 40.9717C19.2708 42.1151 18.2671 40.1993 19.3545 39.751M19.5186 40.39C19.7737 40.0182 20.3779 41.4409 20.9336 41.34M20.7013 40.8209C20.9287 41.4754 18.8053 39.1769 20.4852 42.4107M19.469 40.4897C18.2172 40.5101 18.6938 39.0686 18.2142 39.4064M18.8712 39.3211C20.6159 39.6504 18.346 41.4551 18.8289 41.8969M19.3847 40.5619C20.2359 41.8377 21.0414 42.2136 19.7184 39.7355M20.7303 41.513C19.9334 42.5886 17.7804 42.2606 18.0334 41.0084M18.9417 41.0118C17.465 40.7866 15.9353 40.2891 14.7054 40.6472M19.3779 40.3933C18.319 40.7758 16.9591 40.5999 15.0881 40.4839M14.93 40.5953C14.8909 40.1313 16.1032 39.1306 13.6853 39.129M15.8195 39.0441C16.7092 39.1618 13.1424 40.5133 14.9078 39.9599M19.6885 20.5019C19.5135 24.0261 19.1074 26.6892 18.8666 28.552M19.2415 21.5094C19.6252 23.9847 19.707 26.7551 19.7389 28.7148M19.5483 28.7484C20.3032 30.1909 20.2419 28.1183 22.1661 28.1631M19.6537 30.3015C19.5629 29.4965 21.3319 29.9289 21.9335 27.7025M20.5176 28.8658C20.7553 28.801 21.0707 28.6736 21.6398 28.6905M20.4604 28.8193C20.8204 28.7991 21.1695 28.7995 21.5725 28.8132M21.6108 28.7936C23.9708 28.2454 24.4487 29.0854 24.4414 27.8325M22.1355 28.8692C21.6421 27.4299 25.2613 30.1467 25.9927 26.4109M24.189 28.3866C25.6979 29.3048 24.4802 29.0603 27.2805 26.2849M23.0899 27.2819C25.9465 29.3183 26.5159 27.4539 24.2117 25.5701M26.0274 27.1884C27.1572 25.4234 27.6857 24.8931 25.1719 23.1383M24.6834 28.2562C27.6253 26.1375 26.0218 27.4869 26.3402 24.6488M26.7224 24.8596C26.9778 23.4077 28.0367 25.0519 27.5088 21.8593M28.1463 23.4353C28.4469 22.5561 28.4228 23.1147 27.4317 23.3886M26.2067 22.8475C25.8149 22.1272 24.7635 20.2817 25.0253 21.7629M24.9833 22.5391C25.0349 23.2247 25.9373 22.9692 26.367 20.4804M24.6374 21.5588C25.0363 22.8715 23.2137 22.1082 21.8606 22.6322M26.4043 22.9908C22.8997 23.017 20.8864 22.5417 23.8159 22.6219M21.992 21.1066C22.4162 20.8537 21.4604 21.1372 21.3247 21.6445M23.4252 21.5985C22.455 21.6552 18.8587 19.9225 18.4305 20.7736M20.4675 21.1293C21.4434 21.6078 20.6527 19.8264 18.1847 22.8589M20.067 19.8381C22.0603 20.7271 20.9712 19.5767 19.6465 21.3365M14.6609 40.3014V40.3014ZM19.5483 21.1519V21.1519Z" stroke="#0073C7"/>
<path d="M48 27.4111C47.2452 27.0033 46.4368 26.7097 45.6 26.5393C44.681 26.3258 43.7423 26.2141 42.8 26.206C42.2941 26.1881 41.7884 26.2486 41.3 26.3854C40.9886 26.4519 40.7124 26.6347 40.525 26.8983C40.3987 27.1063 40.3296 27.3455 40.325 27.5906C40.3366 27.8345 40.4243 28.0682 40.575 28.2572C40.812 28.5423 41.1006 28.7774 41.425 28.9495C42 29.2572 42.6 29.5393 43.2 29.7957C44.5507 30.2621 45.843 30.8903 47.05 31.6675C47.871 32.197 48.5499 32.9285 49.025 33.7957C49.4267 34.6137 49.6243 35.5212 49.6 36.4367C49.6203 37.6487 49.2802 38.8382 48.625 39.847C47.9277 40.8705 46.9547 41.6635 45.825 42.129C44.6 42.6675 43.1 42.9495 41.3 42.9495C40.1587 42.9543 39.0198 42.8426 37.9 42.6162C37.0183 42.4599 36.1608 42.184 35.35 41.7957C35.2628 41.7508 35.1904 41.6808 35.1415 41.5943C35.0926 41.5077 35.0695 41.4084 35.075 41.3085V36.847C35.0728 36.8032 35.0808 36.7594 35.0981 36.7193C35.1155 36.6793 35.1418 36.6439 35.175 36.6162C35.2102 36.5952 35.2511 36.5863 35.2916 36.5909C35.3322 36.5955 35.3701 36.6134 35.4 36.6418C36.363 37.2241 37.409 37.6481 38.5 37.8983C39.4633 38.1553 40.4547 38.2846 41.45 38.2829C42.4 38.2829 43.075 38.1547 43.525 37.9239C43.7257 37.8288 43.8958 37.677 44.0154 37.4862C44.1349 37.2955 44.199 37.0737 44.2 36.847C44.2 36.488 44 36.1547 43.6 35.8213C43.2 35.488 42.375 35.1034 41.15 34.6162C39.8933 34.162 38.6999 33.5414 37.6 32.7701C36.8166 32.1974 36.1676 31.4529 35.7 30.5906C35.301 29.7807 35.1035 28.8823 35.125 27.9752C35.1287 26.8811 35.4225 25.8086 35.975 24.8726C36.6101 23.8433 37.5217 23.0241 38.6 22.5136C39.775 21.8983 41.25 21.6162 43.025 21.6162C44.0624 21.6165 45.0984 21.6936 46.125 21.847C46.8631 21.9494 47.5856 22.1476 48.275 22.4367C48.3849 22.4767 48.4748 22.5596 48.525 22.6675C48.5538 22.7676 48.5706 22.8709 48.575 22.9752V27.1547C48.5754 27.2045 48.5643 27.2537 48.5426 27.2983C48.5208 27.3429 48.4891 27.3815 48.45 27.4111C48.3046 27.4647 48.1454 27.4647 48 27.4111Z" fill="#31A8FF"/>
<path d="M36.045 30.8984C36.6572 27.9362 38.5925 25.7021 41.2606 23.5488M35.5974 29.6324C36.9944 28.6253 38.6747 26.1632 41.3897 23.2196M38.1907 32.8403C39.2134 31.5184 39.8673 31.0401 42.1702 28.4491M38.5724 32.971C39.8768 31.319 41.0832 30.3997 41.9702 29.0748M44.0042 26.104C45.4876 25.7097 46.0263 24.3937 48.7958 21.6162M44.0166 26.3609C45.142 25.1535 46.1322 24.5601 48.6386 22.1155M35.0742 42.4715C36.9181 41.4342 38.1115 39.8651 39.9121 37.3344M35.7001 42.2707C36.8303 40.9704 37.692 40.1519 39.7317 37.6224M42.4499 35.2523C42.9732 34.5466 44.014 33.6253 45.1611 32.0511M42.0855 35.6284C42.9803 34.2759 44.0561 32.8431 45.2821 31.6001M40.3245 42.1733C43.9302 41.81 44.6426 37.6758 49.1353 34.6896M40.5476 42.9497C42.6333 40.7162 44.8994 38.7125 49.602 33.8418M36.4417 22.6785V22.6785ZM35.175 36.6051V36.6051Z" stroke="#31A8FF"/>
<path d="M46.6706 27.9672C45.9931 27.5377 44.7263 27.0576 45.8903 27.9947M46.6706 27.9672V27.9672ZM46.1954 26.3876C45.4123 26.8014 46.8089 28.2819 43.9708 25.7527M44.7889 27.2207C44.9144 28.2889 42.3772 28.3549 43.4146 27.1231M44.1846 28.8205C43.3711 26.3342 43.098 27.6692 42.1444 27.1063M42.5936 26.9353C42.8069 27.9259 42.2802 27.1318 42.7606 26.0893M44.1075 27.3756C43.8699 28.137 41.9331 26.9733 40.4514 25.5964M41.4176 27.0889C40.3703 28.2559 40.6371 27.2468 40.1739 26.7264M41.2349 27.8163C41.8391 26.1079 39.5509 28.8439 42.3369 26.4229M40.81 27.5281C39.4133 28.14 39.9987 27.9226 41.8066 26.8986M41.4382 28.3119C41.0496 27.4822 41.6978 26.221 41.5284 27.4832M40.6532 28.1209C41.1229 27.0022 41.396 28.2578 42.0346 29.1831M41.3336 27.741C40.5658 26.8317 39.3182 29.1771 39.6423 29.4167M40.8492 28.6917C40.81 28.7986 42.8092 28.1688 40.3761 30.2928M42.1005 28.142C42.4623 27.0644 42.6307 27.33 41.9473 28.198M41.5156 29.2845C41.9737 29.6177 41.5773 29.8031 41.9644 28.9279M40.928 27.7101C42.7615 28.3748 40.6936 30.3573 42.9734 29.0316M42.9072 30.0091C45.3251 32.0507 46.4223 30.244 45.9266 29.9932M44.1868 31.0177C43.9465 32.3073 44.1666 32.3397 45.2001 32.515M45.9257 31.6119C47.0798 31.1271 47.1509 33.9388 47.967 33.2319M45.4563 32.9053C44.9995 32.0011 45.6593 33.1545 46.6843 32.6611M47.4742 33.4342C48.5735 34.8916 46.41 35.1374 49.04 34.6223M47.1445 34.1568C46.8529 35.4084 48.8213 33.7492 49.602 34.6102M47.925 35.6956C46.5583 36.9932 47.2908 37.5643 48.2746 40.1395M47.1336 35.3269C46.8157 35.8401 47.912 37.2523 46.694 38.9814M47.1606 38.6158C46.8879 39.8498 45.3134 41.3675 45.4023 39.534M46.0274 37.465C46.7712 41.1978 44.5031 42.0877 44.0151 38.6755M44.9653 40.5698C45.2379 40.925 42.1583 41.9842 41.9423 40.9039M44.0752 41.0696C45.6817 39.652 43.1078 39.5231 42.7914 41.4802M41.4176 41.2723C39.672 41.8408 40.8761 40.8094 38.977 40.4139M40.2233 42.9497C40.7186 39.4005 39.4253 40.6898 38.6561 40.8434M38.7519 40.9869C36.9119 39.394 37.8211 41.1654 37.2762 40.8111M38.0425 40.6955C39.519 41.977 37.3531 40.2287 38.2634 42.042M36.7527 40.2844C36.1884 40.5419 36.4169 39.5698 36.4994 40.4892M35.2764 41.4851C37.2091 39.4178 37.9176 41.1353 37.2999 41.8782M36.5892 40.1119C36.4586 41.4113 36.2509 38.52 35.2795 39.8271M35.1369 38.4711C34.7712 41.0713 36.0652 38.6687 37.4484 39.6881M36.8833 39.8388C36.8766 38.3371 36.8698 37.2886 36.262 36.3665M36.4357 39.7838C36.4332 39.1684 36.4085 38.0014 36.5676 35.9334M36.5371 36.0469C35.9724 34.4434 37.4596 35.1127 35.9176 36.8045M36.8985 36.7704C35.6252 36.3559 36.9787 34.2867 37.3992 35.896M36.5552 35.9376C35.1824 36.5522 36.8771 36.2861 35.3248 35.6013M37.7689 36.8593C36.5795 37.7763 36.6167 33.9711 36.9416 34.3579M36.6155 35.8493C37.4966 36.3622 37.3863 34.3428 35.6311 35.6843M35.2101 36.8219C37.6143 35.0142 37.8792 34.4868 37.5036 35.4535M36.7069 35.8276C36.196 35.6028 37.163 35.6599 35.3371 37.4807M37.5041 35.7325C36.7467 34.1742 36.0723 37.4206 35.5862 36.4796M36.7919 35.8712C36.9594 37.677 38.9185 35.9626 38.518 37.2129M35.3271 34.7402C38.1873 35.389 38.0385 36.3411 38.4963 36.6742M39.2223 36.9471C41.2867 38.8673 40.7611 35.6177 40.846 37.1848M37.9512 36.6877C39.5061 38.9369 39.9016 39.0947 43.0837 35.864M41.5352 37.2765C42.3461 37.3688 43.4289 36.3315 43.983 35.5093M41.8511 38.1296C42.0217 35.4311 41.1377 36.797 44.237 35.0759M43.1621 36.9691C44.1878 36.5192 43.9774 36.553 44.3601 36.8802M43.3513 36.1006C43.3445 37.0067 42.6365 35.6475 42.9427 35.1398M43.5465 36.5943C45.0862 37.4437 43.5564 36.6203 45.2475 36.0491M44.707 37.6371C43.4882 36.861 42.172 37.6641 43.0721 36.6107M43.6913 36.0469C43.1246 34.4691 42.3762 34.7474 44.2913 34.8576M44.7423 37.5859C44.0571 34.98 44.7657 35.754 42.7649 35.1162M43.2209 35.1687C42.7246 35.3001 41.5678 35.1767 41.3358 35.155M41.842 34.4205C41.8053 35.3701 41.8915 34.6175 42.2577 35.4372M41.3 34.1368C40.9198 32.2562 40.2208 34.4842 38.3903 31.069M41.8952 35.0464C38.6487 35.6723 40.7098 33.1336 37.3564 31.2737M38.5167 32.556C38.3607 31.7593 36.8964 32.5999 37.2808 31.772M38.6904 33.8566C39.0662 31.7155 38.0755 31.3249 36.2604 32.0627M37.0271 30.6897C37.3157 30.2319 36.9991 30.7115 37.3517 27.4264M37.3848 29.4284C37.156 28.8742 37.5393 28.0316 35.0926 28.6129M36.5763 28.4503C36.2688 27.7956 37.6139 27.8662 36.1546 26.9002M36.7181 28.4223C35.6221 27.3482 35.4814 24.8116 37.0771 26.3088M37.2427 25.7936C36.1877 23.7989 37.0253 23.9409 39.5552 22.8344M36.034 26.6956C39.5015 23.7374 37.8702 23.7063 39.3289 25.0468M39.3007 23.7736C39.0513 24.6556 40.5668 23.079 43.0866 22.2473M39.0462 25.0536C40.8104 22.4695 42.9697 21.9154 42.191 22.3875M42.77 23.0052C44.5982 22.7742 44.3881 22.789 45.0636 23.7035M41.763 21.8439C42.9544 23.1609 42.6926 23.9394 45.0545 21.6162M45.2005 23.2028C44.9304 23.5203 44.8125 22.8427 47.8709 24.3312M43.9306 22.9706C45.1365 21.3484 46.9765 24.2942 46.2556 25.3578M46.8862 23.7078C46.4378 22.8917 47.5835 24.7762 46.9491 23.1118M45.7747 23.4232C46.1887 23.6796 48.8265 24.739 46.8841 22.6496M47.0822 23.9054C48.1707 25.2309 46.7852 24.3541 46.608 23.6167M47.5654 22.6422C47.0293 23.2848 45.5189 23.6796 47.7539 24.9843M46.9786 24.4299C46.9837 25.2356 47.1506 26.0287 47.3199 27.573M47.0506 23.9994C47.0842 25.7304 47.2724 26.9877 46.9835 27.7842M47.1214 27.7477C46.6741 27.4966 46.0961 28.8372 47.5392 28.6669M45.6272 28.1338C45.8881 28.1051 48.7714 26.9695 45.913 25.9107M47.096 27.8706C47.2746 28.0556 46.4464 26.4868 46.3993 26.2759M45.9686 26.9727C46.4659 27.0348 47.3611 27.8598 48.6445 27.8902M47.0234 27.9672C46.7339 29.475 46.1463 28.6936 46.9755 28.9002M46.9049 26.7793C47.4648 28.0986 48.2617 27.4501 45.2812 26.8925" stroke="#0073C7"/>
</g>
</g>
<defs>
<clipPath id="clip0_1919_5619">
<rect width="60" height="60" fill="white"/>
</clipPath>
</defs>
</svg>
